<svg id="svg" version="1.1" xmlns="http://www.w3.org/2000/svg" viewBox="0 0 622 622" style="display: block;"><path d="M0 0 C205.26 0 410.52 0 622 0 C622 205.26 622 410.52 622 622 C416.74 622 211.48 622 0 622 C0 416.74 0 211.48 0 0 Z " transform="translate(0,0)" style="fill: #5B5B5B;"/><path d="M0 0 C205.26 0 410.52 0 622 0 C622 205.26 622 410.52 622 622 C416.74 622 211.48 622 0 622 C0 416.74 0 211.48 0 0 Z M307.625 6.4375 C306.99013672 6.8927002 306.35527344 7.34790039 305.70117188 7.81689453 C299.93839333 11.98549741 294.43073411 16.4070651 289 21 C287.88815632 21.9246421 286.7761702 22.84911296 285.6640625 23.7734375 C273.16512752 34.23588259 261.97293142 45.30717366 252.20947266 58.38476562 C251.10714008 59.85691587 249.98244644 61.31225487 248.85546875 62.765625 C230.18130003 87.36985519 219.7555008 116.87937239 219.875 147.75 C219.87113281 148.76449219 219.86726562 149.77898437 219.86328125 150.82421875 C219.86457031 151.80519531 219.86585938 152.78617188 219.8671875 153.796875 C219.86887939 155.11703613 219.86887939 155.11703613 219.87060547 156.46386719 C220.00318541 159.0624341 220.42689986 161.46515589 221 164 C220.09121094 163.43152344 219.18242187 162.86304688 218.24609375 162.27734375 C195.22798835 148.04751877 169.85042725 138.73872639 143 135 C141.485271 134.78005371 141.485271 134.78005371 139.93994141 134.55566406 C113.83971562 130.88956982 87.2556153 131.03696334 61 133 C61 136.63 61 140.26 61 144 C57.7 144 54.4 144 51 144 C50.27913153 151.14648507 49.84113855 158.1752474 49.83203125 165.35546875 C49.82870285 166.30077957 49.82537445 167.24609039 49.82194519 168.220047 C49.81692202 170.20569377 49.81453542 172.19134884 49.81469727 174.17700195 C49.81251783 177.16306981 49.79433141 180.14876315 49.77539062 183.13476562 C49.7427008 194.27829187 50.29173189 204.98326376 52 216 C52.20418174 217.56349585 52.40645194 219.12724457 52.60546875 220.69140625 C56.56864159 247.05049543 66.05190311 273.17733819 83 294 C83.47050781 294.59103516 83.94101563 295.18207031 84.42578125 295.79101562 C90.90297812 303.88323915 97.65149193 310.78096645 106 317 C106.84820312 317.66257812 107.69640625 318.32515625 108.5703125 319.0078125 C125.40163195 331.81971238 144.86139172 340.20344471 165.0703125 346.08984375 C168 347 168 347 169 348 C168.13761719 348.48726563 167.27523437 348.97453125 166.38671875 349.4765625 C150.9001524 358.40084183 136.39601955 368.86462386 123.63183594 381.40332031 C121.85778578 383.13915036 120.05814971 384.84615739 118.2578125 386.5546875 C97.73117543 406.27194722 82.99708463 430.33710726 76 458 C75.71253906 459.07507813 75.42507812 460.15015625 75.12890625 461.2578125 C72.24907594 472.25352823 71.76044852 482.81278562 71.75 494.125 C71.74899292 494.87955475 71.74798584 495.6341095 71.74694824 496.41152954 C71.76319657 514.45553325 73.55912071 531.70886987 79 549 C79.2587793 549.84691406 79.51755859 550.69382812 79.78417969 551.56640625 C85.3467129 569.64306786 92.35297433 587.16559122 101 604 C104.66881155 603.29445932 107.70450534 601.72264494 111 600 C111.144375 600.9075 111.28875 601.815 111.4375 602.75 C111.86464992 605.21797731 112.3741273 607.58066016 113 610 C121.61699497 608.28820639 129.94199585 605.69306961 138.3125 603.0625 C139.08222137 602.82079071 139.85194275 602.57908142 140.64498901 602.33004761 C188.50567874 587.22398074 235.41214688 566.09139369 272 531 C272.53657227 530.49065918 273.07314453 529.98131836 273.62597656 529.45654297 C287.82319541 515.92208331 298.60961834 500.88893328 307.5 483.375 C307.85078613 482.68752686 308.20157227 482.00005371 308.56298828 481.29174805 C310.02211962 478.34442048 311 476.33281392 311 473 C311.66 473 312.32 473 313 473 C313.11021484 473.96099609 313.11021484 473.96099609 313.22265625 474.94140625 C314.32668066 479.28538169 316.34233383 482.9918328 318.4375 486.9375 C318.88343506 487.77853271 319.32937012 488.61956543 319.78881836 489.48608398 C325.62456957 500.26332437 332.55345795 509.80204744 340.92578125 518.7734375 C342.81324168 520.79952496 344.59620711 522.87896905 346.375 525 C380.26118808 563.7048662 434.07404584 585.16472949 481.5625 601 C482.25728455 601.23178955 482.95206909 601.4635791 483.66790771 601.70239258 C497.55205907 606.85784163 497.55205907 606.85784163 512 609 C513.49821059 605.62902617 514 603.79557881 514 600 C517.3 601.32 520.6 602.64 524 604 C533.55653771 585.57316531 541.14405396 566.92775266 547 547 C547.25998779 546.14325684 547.51997559 545.28651367 547.7878418 544.40380859 C549.97167208 536.90046233 551.16989733 529.36523337 552.1875 521.625 C552.27404846 520.97103241 552.36059692 520.31706482 552.44976807 519.64328003 C557.67414801 479.57446726 549.28719222 439.885379 524.65625 407.29296875 C520.93127066 402.56456602 516.82660638 398.18232874 512.6640625 393.83984375 C510 391 510 391 507.86328125 388.32421875 C504.98056148 384.72837333 501.50376861 381.97426017 498 379 C497.09507812 378.195625 496.19015625 377.39125 495.2578125 376.5625 C482.68803262 365.48550964 468.67929126 356.0574952 454 348 C456.79758596 346.13494269 458.81221712 345.31277436 461.98046875 344.3359375 C462.97208008 344.02261475 463.96369141 343.70929199 464.98535156 343.38647461 C466.57041504 342.88579468 466.57041504 342.88579468 468.1875 342.375 C478.35283751 339.073159 487.67137047 335.18839508 497 330 C498.08539063 329.41347656 499.17078125 328.82695312 500.2890625 328.22265625 C511.0410053 322.22062236 520.00387645 314.33824377 529 306 C529.88945313 305.20916016 529.88945313 305.20916016 530.796875 304.40234375 C554.17775487 282.63585796 565.95087213 248.69676016 570.125 217.875 C570.29386719 216.67746094 570.46273437 215.47992188 570.63671875 214.24609375 C571.111483 210.83302477 571.56379548 207.4181956 572 204 C572.16447632 202.71923584 572.16447632 202.71923584 572.33227539 201.41259766 C573.16418409 194.16108962 573.19120889 186.91760189 573.1875 179.625 C573.18814453 178.31257324 573.18878906 177.00014648 573.18945312 175.64794922 C573.13213121 164.99779726 572.3905579 154.55334121 571 144 C567.7 144 564.4 144 561 144 C561 140.37 561 136.74 561 133 C549.41175908 132.21379874 537.86538673 131.75904458 526.25 131.75 C525.05827179 131.74898788 525.05827179 131.74898788 523.84246826 131.74795532 C482.27248987 131.80335159 440.45872648 139.17369468 405 162 C405.0314209 161.1810022 405.0314209 161.1810022 405.06347656 160.34545898 C406.002856 131.73897697 399.96681161 104.1532626 386.0859375 78.97460938 C384.90855589 76.83372302 383.76673529 74.67571451 382.625 72.515625 C377.42293874 62.78918527 371.65680282 53.78582748 365 45 C364.18994006 43.91288268 363.38004349 42.82564361 362.5703125 41.73828125 C352.27511037 28.03129701 340.77571345 15.43766184 329 3 C328.52949219 3.44472656 328.05898438 3.88945313 327.57421875 4.34765625 C326.95160156 4.91355469 326.32898438 5.47945313 325.6875 6.0625 C324.76517578 6.91521484 324.76517578 6.91521484 323.82421875 7.78515625 C322.92123047 8.38650391 322.92123047 8.38650391 322 9 C318.00146009 7.66715336 317.21502331 5.47020318 315 2 C312.52910882 2 309.64456428 4.98930147 307.625 6.4375 Z " transform="translate(0,0)" style="fill: #FBFBFB;"/><path d="M0 0 C2.33524782 2.25740623 4.18705073 4.2805761 6 7 C9.43595166 5.47291037 12.11912454 3.40072955 15 1 C19.8467298 5.74781695 24.60545293 10.52099999 29.015625 15.6796875 C30.5295273 17.44988034 32.06476703 19.20184782 33.609375 20.9453125 C68.33597604 60.34518056 92.47713021 106.69453702 91 160 C92.07894531 159.3709375 93.15789062 158.741875 94.26953125 158.09375 C111.77605514 148.03357398 129.41900362 140.93205548 149 136 C150.20140625 135.69320312 151.4028125 135.38640625 152.640625 135.0703125 C172.15859312 130.66742202 192.30963303 129.71626982 212.25 129.75 C213.39350922 129.75116318 213.39350922 129.75116318 214.56011963 129.75234985 C225.40149268 129.78440067 236.18459673 130.26623171 247 131 C247 134.63 247 138.26 247 142 C250.3 142 253.6 142 257 142 C263.40837768 190.63500914 258.40099171 247.73457935 228.5 288.4375 C224.24380081 293.85043625 219.72086235 298.98956803 215 304 C214.17628906 304.90298828 214.17628906 304.90298828 213.3359375 305.82421875 C193.78906354 326.47842793 166.66952958 337.11561499 140 345 C143.12966644 347.46135225 146.43099992 349.58401866 149.78662109 351.71728516 C168.77295089 363.79264117 187.54671437 377.61827088 202 395 C202.74636719 395.8353125 203.49273438 396.670625 204.26171875 397.53125 C230.04902837 427.00246099 242.11284682 465.13660257 240 504 C238.49046471 522.63575778 235.01700159 540.3137598 229 558 C228.72285156 558.82999512 228.44570313 559.65999023 228.16015625 560.51513672 C224.87822202 570.23727802 220.94784856 579.63973634 216.75 589 C216.32549561 589.95084473 215.90099121 590.90168945 215.46362305 591.88134766 C214.85514526 593.20851807 214.85514526 593.20851807 214.234375 594.5625 C213.87569336 595.34753906 213.51701172 596.13257813 213.14746094 596.94140625 C212 599 212 599 209 602 C206.03 600.68 203.06 599.36 200 598 C199.855625 599.11375 199.71125 600.2275 199.5625 601.375 C199 605 199 605 198 607 C190.56282239 606.40392535 183.7823449 604.30228215 176.6875 602.0625 C176.05473145 601.86370239 175.42196289 601.66490479 174.77001953 601.46008301 C132.52331384 588.15305705 89.9496477 570.76611953 55 543 C54.11570312 542.30777344 53.23140625 541.61554687 52.3203125 540.90234375 C40.73261796 531.64898188 29.99133501 521.83070396 21 510 C20.25234375 509.05640625 19.5046875 508.1128125 18.734375 507.140625 C-1 481.76785714 -1 481.76785714 -1 471 C-1.66 471 -2.32 471 -3 471 C-3.14115234 472.00933594 -3.14115234 472.00933594 -3.28515625 473.0390625 C-10.76347247 504.01482038 -42.28880232 532.55924349 -67 550 C-67.64179199 550.45455566 -68.28358398 550.90911133 -68.94482422 551.37744141 C-77.66253203 557.49398827 -86.72796478 562.87508574 -96.08398438 567.95166016 C-97.85378167 568.91999726 -99.60741469 569.91772164 -101.359375 570.91796875 C-126.76760617 585.11496428 -171.33123072 608 -201 608 C-202.31626692 604.38026598 -203 601.90432869 -203 598 C-204.093125 598.66 -205.18625 599.32 -206.3125 600 C-208.93707538 601.58464929 -209.8256378 602 -213 602 C-229.8472401 568.37980685 -242.43245832 533.12209546 -242.31567383 495.14550781 C-242.31250021 493.00013897 -242.33616232 490.85613926 -242.36132812 488.7109375 C-242.5291469 451.56607701 -226.1709506 416.02884637 -200.55419922 389.60546875 C-199.47119132 388.48673486 -198.39520243 387.36118147 -197.32470703 386.23046875 C-182.05418236 370.11605783 -164.35779861 356.86105494 -145 346 C-148.39645728 343.73569515 -151.67954822 342.91138592 -155.5625 341.875 C-176.85296939 335.86583304 -196.13296175 325.19834182 -213 311 C-214.26457031 309.96552734 -214.26457031 309.96552734 -215.5546875 308.91015625 C-221.4919654 303.88709588 -226.25569687 298.14118951 -231 292 C-231.96873047 290.80697266 -231.96873047 290.80697266 -232.95703125 289.58984375 C-257.39630017 258.18214785 -264.21189334 217.17401975 -264.13037109 178.47290039 C-264.12500596 175.44086725 -264.13034534 172.4089818 -264.13671875 169.37695312 C-264.13605795 167.41666635 -264.13477675 165.45637966 -264.1328125 163.49609375 C-264.13483673 162.60619247 -264.13686096 161.7162912 -264.13894653 160.79942322 C-264.11582378 154.48081606 -263.63815783 148.28683692 -263 142 C-259.7 142 -256.4 142 -253 142 C-253 138.37 -253 134.74 -253 131 C-198.90451841 126.95547801 -138.96070636 129.87914679 -93 162 C-93.16081055 161.27506348 -93.32162109 160.55012695 -93.48730469 159.80322266 C-99.35373617 127.72781012 -86.77647559 92.34180307 -68.99609375 66.03515625 C-67.04656938 63.31497841 -65.04565167 60.64849597 -63 58 C-62.37480469 57.18144531 -61.74960938 56.36289062 -61.10546875 55.51953125 C-55.76368008 48.67638446 -49.95166387 42.31051419 -44 36 C-43.3090625 35.26652344 -42.618125 34.53304687 -41.90625 33.77734375 C-37.52719271 29.26368429 -32.81862458 25.28331887 -27.9140625 21.3515625 C-24.9391818 18.9509215 -22.03433993 16.47946385 -19.125 14 C-13.03374704 8.89997456 -6.60256366 4.40880864 0 0 Z M5 29 C-29.78844357 55.12022673 -62.40975208 87.54751221 -69.49609375 132.5625 C-71.3074913 146.51697005 -70.55839253 160.41210593 -67 174 C-66.65537886 175.45161638 -66.31167157 176.90344993 -65.96875 178.35546875 C-63.5276798 188.26534233 -59.97364052 197.00478521 -55.10888672 205.95849609 C-53.94257967 208.10571308 -52.79924471 210.26401097 -51.66015625 212.42578125 C-50.1281811 215.33196287 -48.58864953 218.23390004 -47.04296875 221.1328125 C-44.95184682 225.06960602 -42.95541872 229.04879499 -41 233.0546875 C-39.93760119 235.20342715 -39.93760119 235.20342715 -38.125 237.875 C-36.73070569 240.50866703 -37.22038829 241.22804725 -38 244 C-37.13545562 246.70465742 -37.13545562 246.70465742 -36 249 C-36.57105469 249.10957031 -37.14210938 249.21914062 -37.73046875 249.33203125 C-44.85920503 250.72604486 -51.92948066 252.33765219 -59 254 C-59.49306641 252.5459375 -59.49306641 252.5459375 -59.99609375 251.0625 C-63.40775575 241.33117532 -67.73817186 232.6343164 -72.98193359 223.77197266 C-74.36778505 221.35985998 -75.57598536 218.86626695 -76.8125 216.375 C-85.93766439 199.67895746 -101.66229368 187.12574718 -118 178 C-118.95261719 177.46761719 -119.90523438 176.93523437 -120.88671875 176.38671875 C-152.09669263 159.90887442 -187.28790975 156.82370943 -221.9375 156.8125 C-222.77720337 156.81150299 -223.61690674 156.81050598 -224.48205566 156.80947876 C-226.8722442 156.80980079 -229.26219516 156.81877062 -231.65234375 156.83203125 C-232.74436348 156.83384399 -232.74436348 156.83384399 -233.85844421 156.83569336 C-237.21486561 156.57501959 -237.21486561 156.57501959 -240 158 C-240.15195356 160.75189816 -240.23720196 163.4761609 -240.2734375 166.23046875 C-240.28605621 167.08012207 -240.29867493 167.92977539 -240.31167603 168.80517578 C-240.7881313 208.81835188 -236.16659474 247.96210219 -210 280 C-209.02933594 281.20076172 -209.02933594 281.20076172 -208.0390625 282.42578125 C-183.59099518 311.3144159 -142.62376299 324.63839857 -106 328 C-104.00018763 328.02739469 -101.9996695 328.03635763 -100 328 C-100.165 328.680625 -100.33 329.36125 -100.5 330.0625 C-101.59777751 336.51194287 -101.10427771 340.59674009 -97.875 346.203125 C-97 348 -97 348 -97 351 C-97.59723877 351.27561768 -98.19447754 351.55123535 -98.80981445 351.83520508 C-144.66138819 373.10167264 -191.77558196 402.80742058 -211 452 C-212.59769535 456.59674006 -213.81755379 461.28192254 -215 466 C-215.34289062 467.12148438 -215.68578125 468.24296875 -216.0390625 469.3984375 C-225.22802647 503.83837562 -213.30471577 541.94951904 -200.25 573.625 C-199.99299316 574.27605713 -199.73598633 574.92711426 -199.47119141 575.59790039 C-198.27070161 578.33887884 -197.50298198 579.77443591 -194.7265625 581.01953125 C-191.20453184 580.9943018 -188.4743399 580.1706854 -185.125 579.0625 C-184.43647949 578.83578613 -183.74795898 578.60907227 -183.03857422 578.37548828 C-181.51197272 577.86885348 -179.98748359 577.35582194 -178.46484375 576.83740234 C-175.89832143 575.96545587 -173.32452584 575.11752744 -170.75 574.26953125 C-130.41255211 560.79646106 -91.12706496 542.50883834 -60 513 C-59.50145508 512.53400391 -59.00291016 512.06800781 -58.48925781 511.58789062 C-49.84830121 503.46696728 -42.63936435 494.81910338 -36 485 C-35.41605469 484.15050781 -34.83210937 483.30101562 -34.23046875 482.42578125 C-29.35367478 474.84680593 -26.2052697 466.38474056 -23 458 C-22.59523438 456.94425781 -22.19046875 455.88851563 -21.7734375 454.80078125 C-16.03121905 438.7357197 -15.69807397 423.90785753 -16 407 C-7.09 407 1.82 407 11 407 C10.9175 409.536875 10.835 412.07375 10.75 414.6875 C10.38041283 450.98432012 27.72987548 484.15812794 52.58984375 509.62890625 C87.48253887 544.34757296 136.00531746 563.91253568 182.125 578.6875 C182.88176025 578.93137451 183.63852051 579.17524902 184.41821289 579.42651367 C187.80903209 580.47755273 190.40990401 581 194 581 C211.69655556 539.99003963 224.58501622 495.75060275 207.96386719 451.9753418 C188.27637002 403.05443536 139.65234792 371.89298185 93 352 C93.44677986 349.39378415 93.91586456 347.1756946 95.0625 344.78125 C96.26770109 341.20582011 95.97482325 338.43060873 95.625 334.6875 C95.51414062 333.43324219 95.40328125 332.17898438 95.2890625 330.88671875 C95.14597656 329.45779297 95.14597656 329.45779297 95 328 C96.34191406 328.06574219 96.34191406 328.06574219 97.7109375 328.1328125 C121.21442127 328.09746892 147.13990845 319.45007467 168 309 C168.95277832 308.52457764 168.95277832 308.52457764 169.92480469 308.03955078 C179.36160249 303.23142005 187.24131425 297.12402843 195 290 C195.81210937 289.27039063 196.62421875 288.54078125 197.4609375 287.7890625 C208.46662986 277.40123357 215.85780239 264.67872413 222 251 C222.47179687 249.95585937 222.94359375 248.91171875 223.4296875 247.8359375 C226.16536043 241.26012741 228.00340324 234.52948658 229.6875 227.625 C229.99143677 226.38713745 229.99143677 226.38713745 230.30151367 225.12426758 C233.63429693 210.75728825 234.29887248 196.80412471 234.20581055 182.12451172 C234.1872352 179.08162285 234.18530363 176.03903412 234.18554688 172.99609375 C234.18064181 171.06249734 234.17481796 169.128903 234.16796875 167.1953125 C234.16629951 165.82996872 234.16629951 165.82996872 234.16459656 164.43704224 C234.54153023 160.39724563 234.54153023 160.39724563 233 157 C230.1520307 156.86061043 227.33027586 156.78721295 224.48046875 156.76171875 C223.60301498 156.75197021 222.72556122 156.74222168 221.82151794 156.73217773 C201.52877427 156.55384172 181.96638619 156.95895002 162 161 C161.0296582 161.19255371 160.05931641 161.38510742 159.05957031 161.58349609 C134.86646902 166.52027452 111.82100968 175.67036906 93 192 C91.98550781 192.83273438 90.97101563 193.66546875 89.92578125 194.5234375 C81.53145118 201.82285496 77.18372706 210.63200471 72.5703125 220.6328125 C65.67728574 235.38055876 65.67728574 235.38055876 60 238 C58.68289325 240.44751849 58.68289325 240.44751849 57.8125 243.3125 C57.32716797 244.72982422 57.32716797 244.72982422 56.83203125 246.17578125 C56.06649733 248.7742837 55.48044928 251.33569035 55 254 C49.87475334 253.36684209 45.03469229 252.31839344 40.0625 250.9375 C39.37865234 250.75123047 38.69480469 250.56496094 37.99023438 250.37304688 C36.32579707 249.91910943 34.66274688 249.46009084 33 249 C36.29937144 231.30337137 45.01076407 215.03243441 54.921875 200.18359375 C59.99559474 192.41088399 62.77453247 185.02988375 65 176 C65.22945313 175.07574219 65.45890625 174.15148437 65.6953125 173.19921875 C70.45555873 150.03492194 66.00597856 125.54324871 57 104 C56.50983398 102.81833252 56.50983398 102.81833252 56.00976562 101.61279297 C46.84804707 80.00824131 33.36240243 60.65467056 18 43 C17.54979492 42.48211914 17.09958984 41.96423828 16.63574219 41.43066406 C12.88848672 37.14848858 9.04605892 33.00100259 5 29 Z " transform="translate(314,2)" style="fill: #010101;"/><path d="M0 0 C34.98 0 69.96 0 106 0 C105.01 2.97 104.02 5.94 103 9 C102.60789067 10.70810492 102.25464866 12.42655279 101.97265625 14.15625 C101.81990234 15.03410156 101.66714844 15.91195313 101.50976562 16.81640625 C101.21169344 18.60483934 100.91741862 20.39390949 100.62695312 22.18359375 C98.20404096 35.99115176 91.36235067 46.7042432 80 55 C67.93691925 61.68516409 54.50949502 63.1708495 41.1875 59.4375 C25.17605865 53.76431029 13.56097191 42.02113085 6 27 C2.04838977 17.96706709 0.83741537 10.04898439 0 0 Z " transform="translate(258,326)" style="fill: #000000;"/><path d="M0 0 C1.84634033 0.00531738 1.84634033 0.00531738 3.72998047 0.01074219 C14.0176688 0.1965426 22.90106159 1.91056646 32.5 5.5 C33.593125 5.90347656 34.68625 6.30695313 35.8125 6.72265625 C38.07022232 7.59752365 40.29232421 8.50710059 42.5 9.5 C40.95173401 14.45757898 38.98219062 19.13810401 36.875 23.875 C36.55015625 24.61105469 36.2253125 25.34710938 35.890625 26.10546875 C35.09615497 27.90470969 34.29841229 29.70250496 33.5 31.5 C28.41125128 30.78158842 24.04592455 29.29955672 19.28125 27.4375 C9.18519114 24.03433409 -6.18094742 23.33440142 -16.25 27.0625 C-22.84138484 30.38181746 -28.3735346 35.25859143 -33.5 40.5 C-33.97421387 40.11142822 -34.44842773 39.72285645 -34.93701172 39.32250977 C-37.08141165 37.56721254 -39.22817145 35.81482587 -41.375 34.0625 C-42.12136719 33.45083984 -42.86773437 32.83917969 -43.63671875 32.20898438 C-44.35214844 31.62568359 -45.06757813 31.04238281 -45.8046875 30.44140625 C-46.46452637 29.90201416 -47.12436523 29.36262207 -47.80419922 28.80688477 C-49.47603488 27.43208673 -49.47603488 27.43208673 -51.5 26.5 C-47.00344796 15.87178608 -36.17221324 9.56185003 -26.27734375 4.60546875 C-17.41326227 1.07729004 -9.55404593 -0.04955012 0 0 Z " transform="translate(373.5,264.5)" style="fill: #010101;"/><path d="M0 0 C3.77875747 3.24830961 7.29190124 6.34410185 10.0625 10.5 C8.72651727 14.5079482 6.06829653 16.11530939 2.8125 18.5625 C2.23886719 19.00916016 1.66523438 19.45582031 1.07421875 19.91601562 C-2.134833 22.36118148 -5.06523346 24.21167072 -8.9375 25.5 C-9.494375 24.96890625 -10.05125 24.4378125 -10.625 23.890625 C-15.42900022 19.44367885 -19.87520975 15.98898909 -25.9375 13.5 C-26.96230469 12.97019531 -26.96230469 12.97019531 -28.0078125 12.4296875 C-42.8466415 7.72083243 -58.95288069 12.31936925 -72.9375 17.5 C-73.5975 17.5 -74.2575 17.5 -74.9375 17.5 C-76.31033042 14.42464542 -77.65739793 11.33865719 -79 8.25 C-79.38994141 7.37730469 -79.77988281 6.50460937 -80.18164062 5.60546875 C-80.54580078 4.76113281 -80.90996094 3.91679687 -81.28515625 3.046875 C-81.62554932 2.27182617 -81.96594238 1.49677734 -82.31665039 0.69824219 C-83.03291882 -1.8378494 -82.9690887 -3.08587311 -81.9375 -5.5 C-77.52489756 -7.78059833 -72.69230484 -9.09242298 -67.9375 -10.5 C-66.33648437 -10.98726563 -66.33648437 -10.98726563 -64.703125 -11.484375 C-42.4459222 -17.23867621 -18.20760747 -14.47833847 0 0 Z " transform="translate(292.9375,278.5)" style="fill: #010101;"/></svg>
