<svg id="svg" version="1.1" xmlns="http://www.w3.org/2000/svg" style="display: block;" viewBox="0 0 640 640"><path d="M0 0 C211.2 0 422.4 0 640 0 C640 211.2 640 422.4 640 640 C428.8 640 217.6 640 0 640 C0 428.8 0 217.6 0 0 Z " transform="translate(0,0)" style="fill: #01A784;"/><path d="M0 0 C211.2 0 422.4 0 640 0 C640 211.2 640 422.4 640 640 C428.8 640 217.6 640 0 640 C0 428.8 0 217.6 0 0 Z M19.18359375 21.1953125 C14.9715468 27.61764151 14.04765636 33.47648522 15 41 C17.12820247 48.31140525 21.0736043 54.43685049 27.6875 58.375 C30.6843268 60.14680833 30.6843268 60.14680833 33 60 C33.2052832 61.27069336 33.41056641 62.54138672 33.62207031 63.85058594 C35.13201999 71.36026171 37.69532929 78.52905488 40.1558075 85.76875114 C41.0679149 88.45253274 41.97263685 91.13870919 42.87561035 93.82557678 C44.16327717 97.6551107 45.45384603 101.48364748 46.7467041 105.31143188 C50.09166974 115.2201309 53.40788567 125.13845588 56.71875 135.05859375 C57.0428611 136.02958197 57.3669722 137.00057018 57.70090485 138.00098228 C64.88575684 159.54224657 71.80618147 181.15021096 78 203 C78.22093323 203.77923828 78.44186646 204.55847656 78.66949463 205.36132812 C83.95201109 224.0716264 88.6128498 242.84429246 92 262 C92.22171875 263.24394531 92.4434375 264.48789062 92.671875 265.76953125 C93.3795446 269.76049166 94.06761282 273.75464909 94.75 277.75 C94.96108398 278.97557617 95.17216797 280.20115234 95.38964844 281.46386719 C100.2245341 310.59226704 98.82032752 339.99620832 94 369 C93.79632813 370.23331055 93.59265625 371.46662109 93.3828125 372.73730469 C83.67035187 429.88794109 64.10501681 485.09233059 45.6796875 539.875 C45.33128311 540.91268524 44.98287872 541.95037048 44.62391663 543.01950073 C42.96011996 547.97430202 41.29043348 552.92693078 39.6081543 557.87548828 C39.0106813 559.64868768 38.41342013 561.42195847 37.81640625 563.1953125 C37.54428314 563.98784424 37.27216003 564.78037598 36.99179077 565.59692383 C35.49114932 570.07792763 34.51624416 574.29972723 34 579 C33.29875 579.0825 32.5975 579.165 31.875 579.25 C24.83358441 581.08689102 20.69164743 586.02887148 17 592 C14.19593013 597.92288228 13.90309188 604.19936161 15.72265625 610.50390625 C18.99941018 618.3442365 23.48791859 623.51636975 31.25390625 627.08203125 C37.66818312 629.2262063 43.6632211 628.83566585 49.875 626.25 C55.81044265 623.22408806 59.64593104 619.83856448 63 614 C63 613.01 63 612.02 63 611 C63.86044922 610.78174561 63.86044922 610.78174561 64.73828125 610.55908203 C74.28287596 608.05163445 83.62555927 604.94484049 93 601.875 C94.88644469 601.25983662 96.77292006 600.64476735 98.65942383 600.02978516 C109.04250214 596.63896209 119.40923027 593.20183483 129.76171875 589.71875 C289.49405173 535.99449433 289.49405173 535.99449433 371 550 C372.01713074 550.1746579 372.01713074 550.1746579 373.05480957 550.35284424 C411.54118621 557.03814962 448.84747604 568.10938915 486 580 C486.8554541 580.27368408 487.7109082 580.54736816 488.59228516 580.8293457 C509.784313 587.61682078 530.91363854 594.59458361 552.01531982 601.65748596 C553.36637111 602.1095283 554.71764358 602.56091015 556.06915283 603.01158142 C559.45676556 604.14230992 562.83882242 605.28678901 566.21435547 606.453125 C567.23806496 606.80340759 567.23806496 606.80340759 568.28245544 607.1607666 C570.15835827 607.80301333 572.03225385 608.45111443 573.90600586 609.09960938 C577.10305507 610.18628066 577.10305507 610.18628066 581 610 C581.10441406 610.7425 581.20882812 611.485 581.31640625 612.25 C582.67736098 617.72492645 586.80371895 621.47215231 591.3359375 624.625 C598.17919646 628.42441192 603.97805482 629.1600846 611.5703125 627.40625 C619.48065674 624.79365924 624.61837623 619.46554456 628.5 612.1875 C629.72352429 604.38753265 630.26093846 595.96153326 626 589 C623.08737519 585.35186388 620.39146771 582.57072946 616.03100586 580.78222656 C612.22069782 578.54177158 611.78440173 577.11310956 610.4921875 572.94140625 C610.28905441 572.31096405 610.08592133 571.68052185 609.87663269 571.03097534 C609.18859637 568.88083575 608.53269234 566.72209766 607.875 564.5625 C607.37816499 562.99209647 606.87863586 561.42254327 606.37670898 559.85375977 C605.53919415 557.23543297 604.70355666 554.61663168 603.87553406 551.99528503 C601.41620561 544.22416899 598.83758824 536.49608833 596.23046875 528.7734375 C595.37804441 526.24654419 594.52567892 523.71963133 593.67358398 521.19262695 C593.45929402 520.55713204 593.24500406 519.92163713 593.02422047 519.2668848 C555.22411004 407.09000046 555.22411004 407.09000046 549 351 C548.8618689 349.85978394 548.8618689 349.85978394 548.72094727 348.6965332 C545.90791697 322.64125077 547.19706174 295.68911015 552 270 C552.34501807 267.96267317 552.68748163 265.92491203 553.02734375 263.88671875 C562.40221859 209.70406675 581.50370561 157.06243415 598.9921875 105.109375 C599.47128067 103.68338737 599.47128067 103.68338737 599.96005249 102.22859192 C601.45971221 97.76564909 602.965043 93.30484015 604.48388672 88.84838867 C605.02676845 87.24172888 605.56862749 85.6347231 606.109375 84.02734375 C606.36715729 83.26636887 606.62493958 82.50539398 606.89053345 81.72135925 C608.13696203 77.95459257 609.21981636 74.21843592 610.06445312 70.34033203 C610.22802307 69.59908585 610.39159302 68.85783966 610.56011963 68.09413147 C610.98669503 66.07812974 611.37419414 64.05397088 611.75878906 62.02954102 C613 59 613 59 615.98242188 57.68823242 C616.97822266 57.46111572 617.97402344 57.23399902 619 57 C621.32286622 55.09381159 621.32286622 55.09381159 623.25 52.75 C623.91515625 52.00234375 624.5803125 51.2546875 625.265625 50.484375 C629.82702422 43.95047882 629.72555614 36.67958769 629 29 C627.23822637 21.91743352 621.7612954 17.1388058 616 13 C609.85790036 9.90887796 602.09084102 9.73425334 595.55078125 11.7578125 C593.57666961 12.71290651 591.8077466 13.7617583 590 15 C589.113125 15.556875 588.22625 16.11375 587.3125 16.6875 C583.83594661 20.16405339 580.37190897 25.02544832 579.74780273 30.01708984 C579 32 579 32 576.89770508 33.08642578 C575.47300903 33.51157471 575.47300903 33.51157471 574.01953125 33.9453125 C572.90368652 34.29045898 571.7878418 34.63560547 570.63818359 34.99121094 C568.74447021 35.55243652 568.74447021 35.55243652 566.8125 36.125 C563.96475626 36.99918139 561.121228 37.88679283 558.27734375 38.7734375 C557.48942444 39.01743286 556.70150513 39.26142822 555.88970947 39.51281738 C545.65489843 42.69826726 535.51189354 46.15968473 525.35397339 49.58047485 C477.3350533 65.72297676 428.91137796 81.74527926 379 91 C377.74541992 91.23976563 376.49083984 91.47953125 375.19824219 91.7265625 C357.78642485 95.00430117 340.72295035 96.45842904 323 96.4375 C321.69503571 96.43783234 321.69503571 96.43783234 320.3637085 96.43817139 C253.38859855 96.25561734 187.72237375 71.9191905 125 51 C122.90953124 50.3036328 120.81903707 49.60734185 118.72851562 48.91113281 C102.98219725 43.66537323 102.98219725 43.66537323 96.54223633 41.50219727 C89.03410965 38.98289716 81.51740919 36.49656088 73.96484375 34.11328125 C73.28966202 33.89850632 72.61448029 33.68373138 71.9188385 33.46244812 C68.5240753 32.3642473 68.5240753 32.3642473 65 32 C64.85304687 31.43152344 64.70609375 30.86304687 64.5546875 30.27734375 C62.22142484 22.24501998 58.69306742 17.25599931 51.375 13.0625 C39.6364649 7.75724615 26.96660241 10.92085914 19.18359375 21.1953125 Z " transform="translate(0,0)" style="fill: #FBFBFB;"/><path d="M0 0 C5.09141635 2.91755319 9.6634636 6.4196839 11.265625 12.28125 C11.44609375 13.0753125 11.6265625 13.869375 11.8125 14.6875 C12.36509393 16.91922334 12.36509393 16.91922334 13.625 18.9375 C15.88640683 19.99274178 15.88640683 19.99274178 18.60009766 20.49902344 C19.59301819 20.73617065 20.58593872 20.97331787 21.60894775 21.21765137 C22.604245 21.45520142 23.59954224 21.69275146 24.625 21.9375 C26.30851997 22.44181611 27.98653832 22.96496625 29.65771484 23.50878906 C30.49444229 23.78106827 31.33116974 24.05334747 32.19325256 24.33387756 C33.06533859 24.62072922 33.93742462 24.90758087 34.8359375 25.203125 C35.78516586 25.5131395 36.73439423 25.82315399 37.71238708 26.14256287 C40.80912449 27.15491527 43.90454024 28.17124844 47 29.1875 C49.18964344 29.90356632 51.37934161 30.61946528 53.5690918 31.33520508 C64.16395634 34.80303966 74.74753988 38.30154928 85.30859375 41.87109375 C163.52070018 68.28786779 244.52670433 93.81860249 327.625 77.9375 C328.7790332 77.72351563 329.93306641 77.50953125 331.12207031 77.2890625 C365.67733381 70.7703403 399.57436307 60.73681017 432.95721436 49.80914307 C436.81005582 48.55030784 440.66596801 47.30098655 444.5216217 46.05079651 C466.282564 38.99277482 488.01740005 31.85686146 509.70166016 24.56640625 C510.39541748 24.3337204 511.0891748 24.10103455 511.80395508 23.86129761 C513.63746056 23.24617354 515.47036891 22.62927034 517.30322266 22.01220703 C519.66781235 21.2471825 522.05911146 20.56271377 524.46362305 19.93432617 C527.74334998 19.27082611 527.74334998 19.27082611 529.04296875 16.73046875 C529.29691406 15.87066406 529.55085937 15.01085937 529.8125 14.125 C532.97736889 4.94688021 538.28885522 2.10557239 546.625 -2.0625 C555.78258846 -2.8537364 562.386434 -2.3380165 569.55859375 3.515625 C574.47321946 8.05220258 577.24440106 12.26472022 577.9375 18.953125 C578.24388459 27.18721084 577.43184691 33.80301463 571.71875 40.0078125 C568.42404031 43.04435464 566.0179393 44.95824061 561.625 45.9375 C561.40613129 46.87995575 561.18726257 47.8224115 560.96176147 48.79342651 C558.41588491 59.49555895 555.14325095 69.848966 551.6015625 80.2578125 C551.01666804 81.99302952 550.43247713 83.72848383 549.84893799 85.4641571 C548.6204195 89.11624097 547.38898139 92.76731968 546.1552124 96.41763306 C542.95132607 105.9025766 539.77828552 115.39785441 536.609375 124.89453125 C536.1436867 126.28994298 536.1436867 126.28994298 535.66859055 127.71354485 C521.9107283 168.96816148 508.31318601 210.87836073 501.14404297 253.87255859 C500.79374003 255.94109248 500.4251176 258.00659578 500.03955078 260.06884766 C494.38998762 290.29977545 494.49567583 322.63081381 499.625 352.9375 C499.81835938 354.09556152 500.01171875 355.25362305 500.2109375 356.44677734 C509.51414694 410.69396384 527.40962849 462.81771165 544.625 514.9375 C547.17270483 522.65071354 549.71663656 530.36512354 552.24960327 538.08319092 C553.23048303 541.06565664 554.21824864 544.04578246 555.20629883 547.02587891 C555.7967537 548.82312166 556.38686241 550.6204782 556.9765625 552.41796875 C557.38295708 553.63420677 557.38295708 553.63420677 557.79756165 554.87501526 C558.95614357 558.42967611 559.625 561.16200182 559.625 564.9375 C558.75617187 564.99808594 557.88734375 565.05867187 556.9921875 565.12109375 C555.83976563 565.20488281 554.68734375 565.28867187 553.5 565.375 C552.36304688 565.45621094 551.22609375 565.53742187 550.0546875 565.62109375 C546.8709522 565.91480965 543.76989093 566.36874313 540.625 566.9375 C540.625 567.5975 540.625 568.2575 540.625 568.9375 C539.305 569.2675 537.985 569.5975 536.625 569.9375 C536.0078125 568.0859375 535.390625 566.234375 534.7734375 564.3828125 C534.56732849 563.76475739 534.36121948 563.14670227 534.14886475 562.50991821 C532.90852154 558.79007181 531.66977846 555.0697011 530.43310547 551.34863281 C527.46276517 542.41728701 524.47777409 533.49114556 521.46242428 524.57488823 C510.00821744 490.70428318 498.90292849 456.82380334 489.3036499 422.36877441 C488.61937908 419.91736296 487.92868495 417.46783158 487.23681641 415.01855469 C485.01089095 407.11448464 482.83770992 399.22196407 481.125 391.1875 C480.92342285 390.24398682 480.7218457 389.30047363 480.51416016 388.32836914 C472.52022954 349.99397876 467.46761068 310.98630481 472.625 271.9375 C472.625 270.9475 472.625 269.9575 472.625 268.9375 C451.17123351 269.04489674 429.71750135 269.15768591 408.26379681 269.27683926 C398.30177127 269.3320433 388.33974214 269.38550372 378.37768555 269.43481445 C369.69158377 269.47781387 361.00550698 269.52413061 352.319444 269.57437855 C347.72315547 269.60085313 343.12687149 269.62570201 338.53055382 269.64657402 C334.19761405 269.66630255 329.86472131 269.69049221 325.53182411 269.71799088 C323.94808439 269.7272762 322.36433442 269.73498117 320.78057861 269.74091911 C313.11362663 269.77053135 305.5226762 269.91793809 297.89055347 270.71348286 C295.00729195 270.99857876 292.15126397 271.0645117 289.25488281 271.06689453 C288.13712463 271.07004669 287.01936646 271.07319885 285.86773682 271.07644653 C284.11562897 271.07341019 284.11562897 271.07341019 282.328125 271.0703125 C281.09511658 271.07126923 279.86210815 271.07222595 278.59173584 271.07321167 C276.00337675 271.07388812 273.41501592 271.0720714 270.82666016 271.06787109 C266.87268268 271.06249685 262.91881783 271.06784375 258.96484375 271.07421875 C256.44010392 271.07355823 253.91536415 271.07227762 251.390625 271.0703125 C250.21445618 271.07233673 249.03828735 271.07436096 247.82647705 271.07644653 C246.72132751 271.07329437 245.61617798 271.07014221 244.47753906 271.06689453 C243.51366272 271.06609894 242.54978638 271.06530334 241.55670166 271.06448364 C238.625 270.9375 238.625 270.9375 235.37639141 270.43945217 C231.75815609 269.95531685 228.31888534 269.79921522 224.67103577 269.77928162 C224.00760286 269.77434364 223.34416996 269.76940566 222.66063303 269.76431805 C220.4574328 269.74906929 218.2542614 269.74061705 216.05102539 269.73217773 C214.46380362 269.72258926 212.87658434 269.71257862 211.28936768 269.70217896 C206.99448069 269.67522885 202.69958282 269.65416595 198.40465856 269.63417697 C193.91098266 269.61225613 189.41733991 269.58489737 184.9236908 269.55812073 C176.42056834 269.5082761 167.9174274 269.46330685 159.41426891 269.42009836 C149.73107666 269.37065551 140.04791769 269.31576359 130.36475766 269.26041877 C110.45153613 269.14672512 90.53828281 269.03985877 70.625 268.9375 C70.69531811 270.03203649 70.76563622 271.12657297 70.83808517 272.25427723 C70.93041064 273.70677223 71.02268953 275.15927018 71.1149292 276.61177063 C71.16127439 277.33122754 71.20761959 278.05068444 71.25536919 278.79194307 C71.59018496 284.08527977 71.79678631 289.36350927 71.828125 294.66796875 C71.83513931 295.49904144 71.84215363 296.33011414 71.84938049 297.18637085 C71.86663574 299.8326377 71.87322751 302.47867906 71.875 305.125 C71.87567474 306.04102997 71.87634949 306.95705994 71.87704468 307.90084839 C71.84938601 331.71754451 69.41390049 354.66823204 64.28222656 377.94970703 C63.62654193 380.93049031 62.99410918 383.91539061 62.3671875 386.90234375 C58.07946587 407.20115647 52.82431489 426.98222574 46.60839844 446.77685547 C45.7114561 449.65962992 44.83707349 452.54758259 43.9765625 455.44140625 C39.13549361 471.71001209 33.73127313 487.78145878 28.32666016 503.86914062 C25.59430854 512.00400173 22.87448262 520.14304493 20.15750122 528.28305054 C19.2801811 530.90964143 18.40081376 533.53553998 17.52124023 536.16137695 C16.96443448 537.82755436 16.4078714 539.49381289 15.8515625 541.16015625 C15.582939 541.96298538 15.31431549 542.76581451 15.03755188 543.5929718 C13.62533837 547.83805957 12.25903245 552.09303384 10.94824219 556.37060547 C10.67724701 557.25074814 10.40625183 558.13089081 10.12704468 559.03770447 C9.61004174 560.72599637 9.09967728 562.41633928 8.59683228 564.10890198 C7.99621963 566.07002573 7.31771911 568.00698655 6.625 569.9375 C5.965 570.2675 5.305 570.5975 4.625 570.9375 C2.5 570 2.5 570 0.625 568.9375 C0.625 568.2775 0.625 567.6175 0.625 566.9375 C-5.315 566.2775 -11.255 565.6175 -17.375 564.9375 C-15.23206607 555.70841412 -12.45901487 546.82236611 -9.42430305 537.85991478 C-8.57192916 535.34196996 -7.72565511 532.8220408 -6.88072205 530.30158997 C-4.77376901 524.02035148 -2.65737558 517.74230453 -0.5402832 511.46447754 C15.96852599 462.70330242 15.96852599 462.70330242 30 413.1875 C30.40699305 411.61432089 30.81405893 410.04116061 31.22119141 408.46801758 C36.56293544 387.70391023 41.20496258 366.90101754 44.234375 345.66357422 C44.47465826 343.9866974 44.72289235 342.31090913 44.984375 340.63720703 C48.41031602 318.68977235 47.91520103 294.86275371 44.625 272.9375 C44.47434082 271.86516113 44.32368164 270.79282227 44.16845703 269.68798828 C36.09368054 212.65260736 17.26272036 158.08746701 -0.82910156 103.61083984 C-4.31027006 93.12802865 -7.76424745 82.63635388 -11.19973755 72.13848877 C-12.16561453 69.19176869 -13.13715034 66.24695749 -14.10913086 63.30224609 C-14.68372298 61.54924933 -15.25804127 59.79616277 -15.83203125 58.04296875 C-16.09341888 57.25561844 -16.35480652 56.46826813 -16.62411499 55.65705872 C-17.60785134 52.63574046 -18.375 50.13684537 -18.375 46.9375 C-19.220625 46.73125 -20.06625 46.525 -20.9375 46.3125 C-27.72382869 43.59796852 -31.65439182 39.36944934 -34.6484375 32.76953125 C-37.06120183 26.68573301 -37.50881928 20.49657399 -35.50390625 14.203125 C-32.19535513 7.04363732 -27.89363966 3.00728804 -21.1875 -0.9375 C-13.88997758 -3.09086727 -6.99660355 -3.1975428 0 0 Z " transform="translate(51.375,13.0625)" style="fill: #5B5B5B;"/><path d="M0 0 C5.09141635 2.91755319 9.6634636 6.4196839 11.265625 12.28125 C11.44609375 13.0753125 11.6265625 13.869375 11.8125 14.6875 C12.36509393 16.91922334 12.36509393 16.91922334 13.625 18.9375 C15.88640683 19.99274178 15.88640683 19.99274178 18.60009766 20.49902344 C19.59301819 20.73617065 20.58593872 20.97331787 21.60894775 21.21765137 C22.604245 21.45520142 23.59954224 21.69275146 24.625 21.9375 C26.30851997 22.44181611 27.98653832 22.96496625 29.65771484 23.50878906 C30.49444229 23.78106827 31.33116974 24.05334747 32.19325256 24.33387756 C33.06533859 24.62072922 33.93742462 24.90758087 34.8359375 25.203125 C35.78516586 25.5131395 36.73439423 25.82315399 37.71238708 26.14256287 C40.80912449 27.15491527 43.90454024 28.17124844 47 29.1875 C49.18964344 29.90356632 51.37934161 30.61946528 53.5690918 31.33520508 C64.16395634 34.80303966 74.74753988 38.30154928 85.30859375 41.87109375 C163.52070018 68.28786779 244.52670433 93.81860249 327.625 77.9375 C328.7790332 77.72351563 329.93306641 77.50953125 331.12207031 77.2890625 C365.67733381 70.7703403 399.57436307 60.73681017 432.95721436 49.80914307 C436.81005582 48.55030784 440.66596801 47.30098655 444.5216217 46.05079651 C466.282564 38.99277482 488.01740005 31.85686146 509.70166016 24.56640625 C510.39541748 24.3337204 511.0891748 24.10103455 511.80395508 23.86129761 C513.63746056 23.24617354 515.47036891 22.62927034 517.30322266 22.01220703 C519.66781235 21.2471825 522.05911146 20.56271377 524.46362305 19.93432617 C527.74334998 19.27082611 527.74334998 19.27082611 529.04296875 16.73046875 C529.29691406 15.87066406 529.55085937 15.01085937 529.8125 14.125 C532.97736889 4.94688021 538.28885522 2.10557239 546.625 -2.0625 C555.78258846 -2.8537364 562.386434 -2.3380165 569.55859375 3.515625 C574.47321946 8.05220258 577.24440106 12.26472022 577.9375 18.953125 C578.24388459 27.18721084 577.43184691 33.80301463 571.71875 40.0078125 C568.42404031 43.04435464 566.0179393 44.95824061 561.625 45.9375 C561.40613129 46.87995575 561.18726257 47.8224115 560.96176147 48.79342651 C558.41588491 59.49555895 555.14325095 69.848966 551.6015625 80.2578125 C551.01666804 81.99302952 550.43247713 83.72848383 549.84893799 85.4641571 C548.6204195 89.11624097 547.38898139 92.76731968 546.1552124 96.41763306 C542.95132607 105.9025766 539.77828552 115.39785441 536.609375 124.89453125 C536.1436867 126.28994298 536.1436867 126.28994298 535.66859055 127.71354485 C521.9107283 168.96816148 508.31318601 210.87836073 501.14404297 253.87255859 C500.79374003 255.94109248 500.4251176 258.00659578 500.03955078 260.06884766 C494.38998762 290.29977545 494.49567583 322.63081381 499.625 352.9375 C499.81835938 354.09556152 500.01171875 355.25362305 500.2109375 356.44677734 C509.51414694 410.69396384 527.40962849 462.81771165 544.625 514.9375 C547.17270483 522.65071354 549.71663656 530.36512354 552.24960327 538.08319092 C553.23048303 541.06565664 554.21824864 544.04578246 555.20629883 547.02587891 C555.7967537 548.82312166 556.38686241 550.6204782 556.9765625 552.41796875 C557.38295708 553.63420677 557.38295708 553.63420677 557.79756165 554.87501526 C558.95614357 558.42967611 559.625 561.16200182 559.625 564.9375 C558.75617187 564.99808594 557.88734375 565.05867187 556.9921875 565.12109375 C555.83976563 565.20488281 554.68734375 565.28867187 553.5 565.375 C552.36304688 565.45621094 551.22609375 565.53742187 550.0546875 565.62109375 C546.8709522 565.91480965 543.76989093 566.36874313 540.625 566.9375 C540.625 567.5975 540.625 568.2575 540.625 568.9375 C539.305 569.2675 537.985 569.5975 536.625 569.9375 C536.0078125 568.0859375 535.390625 566.234375 534.7734375 564.3828125 C534.56732849 563.76475739 534.36121948 563.14670227 534.14886475 562.50991821 C532.90852154 558.79007181 531.66977846 555.0697011 530.43310547 551.34863281 C527.46276517 542.41728701 524.47777409 533.49114556 521.46242428 524.57488823 C510.00821744 490.70428318 498.90292849 456.82380334 489.3036499 422.36877441 C488.61937908 419.91736296 487.92868495 417.46783158 487.23681641 415.01855469 C485.01089095 407.11448464 482.83770992 399.22196407 481.125 391.1875 C480.92342285 390.24398682 480.7218457 389.30047363 480.51416016 388.32836914 C470.76580555 341.58074906 467.36229283 296.07426279 476.25 249 C476.44124451 247.98578476 476.44124451 247.98578476 476.63635254 246.95108032 C486.29446536 196.07052 502.63785106 146.82073144 518.99609375 97.78125 C519.22268929 97.10189833 519.44928482 96.42254665 519.68274689 95.72260857 C521.92018558 89.0169003 524.16239751 82.31283086 526.4179945 75.61320686 C527.05241653 73.72797569 527.68540664 71.84226284 528.31837463 69.95654297 C529.09105757 67.65511215 529.86619805 65.35450419 530.64439392 63.05493164 C532.87507232 56.40442991 534.8597903 49.72657784 536.625 42.9375 C519.7722712 47.77121829 503.18512445 53.3724978 486.57290649 58.96234131 C366.80639773 99.24478992 366.80639773 99.24478992 308.45849609 106.57910156 C305.91223274 106.90116899 303.37278249 107.25476076 300.83203125 107.6171875 C236.17967793 116.27077529 168.51443688 95.64814661 107.625 75.9375 C106.58525024 75.60131653 105.54550049 75.26513306 104.47424316 74.91876221 C78.77301908 66.60282672 53.11102964 58.16378372 27.50708008 49.55273438 C20.58021817 47.22658094 13.64509441 44.96796877 6.625 42.9375 C8.09002656 49.12676507 9.91053366 55.13204782 11.8984375 61.171875 C12.21811493 62.15022812 12.53779236 63.12858124 12.86715698 64.13658142 C13.9086579 67.32113877 14.95426593 70.50433047 16 73.6875 C16.7276964 75.9098606 17.45523396 78.13227321 18.18261719 80.35473633 C22.13189222 92.40919808 26.1211031 104.44962638 30.15487671 116.4760437 C72.20233312 241.95198292 72.20233312 241.95198292 71.9375 305.25 C71.93567719 306.16103485 71.93385437 307.0720697 71.93197632 308.01071167 C71.8524395 331.77771215 69.40288682 354.71819903 64.28222656 377.94970703 C63.62654193 380.93049031 62.99410918 383.91539061 62.3671875 386.90234375 C58.07946587 407.20115647 52.82431489 426.98222574 46.60839844 446.77685547 C45.7114561 449.65962992 44.83707349 452.54758259 43.9765625 455.44140625 C39.13549361 471.71001209 33.73127313 487.78145878 28.32666016 503.86914062 C25.59430854 512.00400173 22.87448262 520.14304493 20.15750122 528.28305054 C19.2801811 530.90964143 18.40081376 533.53553998 17.52124023 536.16137695 C16.96443448 537.82755436 16.4078714 539.49381289 15.8515625 541.16015625 C15.582939 541.96298538 15.31431549 542.76581451 15.03755188 543.5929718 C13.62533837 547.83805957 12.25903245 552.09303384 10.94824219 556.37060547 C10.67724701 557.25074814 10.40625183 558.13089081 10.12704468 559.03770447 C9.61004174 560.72599637 9.09967728 562.41633928 8.59683228 564.10890198 C7.99621963 566.07002573 7.31771911 568.00698655 6.625 569.9375 C5.965 570.2675 5.305 570.5975 4.625 570.9375 C2.5 570 2.5 570 0.625 568.9375 C0.625 568.2775 0.625 567.6175 0.625 566.9375 C-5.315 566.2775 -11.255 565.6175 -17.375 564.9375 C-15.23206607 555.70841412 -12.45901487 546.82236611 -9.42430305 537.85991478 C-8.57192916 535.34196996 -7.72565511 532.8220408 -6.88072205 530.30158997 C-4.77376901 524.02035148 -2.65737558 517.74230453 -0.5402832 511.46447754 C15.96852599 462.70330242 15.96852599 462.70330242 30 413.1875 C30.40699305 411.61432089 30.81405893 410.04116061 31.22119141 408.46801758 C36.56293544 387.70391023 41.20496258 366.90101754 44.234375 345.66357422 C44.47465826 343.9866974 44.72289235 342.31090913 44.984375 340.63720703 C48.41031602 318.68977235 47.91520103 294.86275371 44.625 272.9375 C44.47434082 271.86516113 44.32368164 270.79282227 44.16845703 269.68798828 C36.09368054 212.65260736 17.26272036 158.08746701 -0.82910156 103.61083984 C-4.31027006 93.12802865 -7.76424745 82.63635388 -11.19973755 72.13848877 C-12.16561453 69.19176869 -13.13715034 66.24695749 -14.10913086 63.30224609 C-14.68372298 61.54924933 -15.25804127 59.79616277 -15.83203125 58.04296875 C-16.09341888 57.25561844 -16.35480652 56.46826813 -16.62411499 55.65705872 C-17.60785134 52.63574046 -18.375 50.13684537 -18.375 46.9375 C-19.220625 46.73125 -20.06625 46.525 -20.9375 46.3125 C-27.72382869 43.59796852 -31.65439182 39.36944934 -34.6484375 32.76953125 C-37.06120183 26.68573301 -37.50881928 20.49657399 -35.50390625 14.203125 C-32.19535513 7.04363732 -27.89363966 3.00728804 -21.1875 -0.9375 C-13.88997758 -3.09086727 -6.99660355 -3.1975428 0 0 Z " transform="translate(51.375,13.0625)" style="fill: #020202;"/><path d="M0 0 C1.32 0.66 2.64 1.32 4 2 C3.34 2 2.68 2 2 2 C3.46502656 8.18926507 5.28553366 14.19454782 7.2734375 20.234375 C7.59311493 21.21272812 7.91279236 22.19108124 8.24215698 23.19908142 C9.2836579 26.38363877 10.32926593 29.56683047 11.375 32.75 C12.1026964 34.9723606 12.83023396 37.19477321 13.55761719 39.41723633 C17.50689222 51.47169808 21.4961031 63.51212638 25.52987671 75.5385437 C67.57733312 201.01448292 67.57733312 201.01448292 67.3125 264.3125 C67.31067719 265.22353485 67.30885437 266.1345697 67.30697632 267.07321167 C67.2274395 290.84021215 64.77788682 313.78069903 59.65722656 337.01220703 C59.00154193 339.99299031 58.36910918 342.97789061 57.7421875 345.96484375 C53.45446587 366.26365647 48.19931489 386.04472574 41.98339844 405.83935547 C41.0864561 408.72212992 40.21207349 411.61008259 39.3515625 414.50390625 C34.51049361 430.77251209 29.10627313 446.84395878 23.70166016 462.93164062 C20.96930854 471.06650173 18.24948262 479.20554493 15.53250122 487.34555054 C14.6551811 489.97214143 13.77581376 492.59803998 12.89624023 495.22387695 C12.33943448 496.89005436 11.7828714 498.55631289 11.2265625 500.22265625 C10.957939 501.02548538 10.68931549 501.82831451 10.41255188 502.6554718 C9.00033837 506.90055957 7.63403245 511.15553384 6.32324219 515.43310547 C6.05224701 516.31324814 5.78125183 517.19339081 5.50204468 518.10020447 C4.98504174 519.78849637 4.47467728 521.47883928 3.97183228 523.17140198 C3.37121963 525.13252573 2.69271911 527.06948655 2 529 C1.34 529.33 0.68 529.66 0 530 C-2.125 529.0625 -2.125 529.0625 -4 528 C-4 527.34 -4 526.68 -4 526 C-9.94 525.34 -15.88 524.68 -22 524 C-19.85706607 514.77091412 -17.08401487 505.88486611 -14.04930305 496.92241478 C-13.19692916 494.40446996 -12.35065511 491.8845408 -11.50572205 489.36408997 C-9.39876901 483.08285147 -7.28237558 476.80480453 -5.1652832 470.52697754 C11.34352599 421.76580242 11.34352599 421.76580242 25.375 372.25 C25.78199305 370.67682089 26.18905893 369.10366061 26.59619141 367.53051758 C31.93793544 346.76641023 36.57996258 325.96351754 39.609375 304.72607422 C39.84965826 303.0491974 40.09789235 301.37340913 40.359375 299.69970703 C43.78531602 277.75227235 43.29020103 253.92525371 40 232 C39.77401123 230.3914917 39.77401123 230.3914917 39.54345703 228.75048828 C31.46868054 171.71510736 12.63772036 117.14996701 -5.45410156 62.67333984 C-8.93527006 52.19052865 -12.38924745 41.69885388 -15.82473755 31.20098877 C-16.79061453 28.25426869 -17.76215034 25.30945749 -18.73413086 22.36474609 C-19.30872298 20.61174933 -19.88304127 18.85866277 -20.45703125 17.10546875 C-20.8491127 15.92444328 -20.8491127 15.92444328 -21.24911499 14.71955872 C-22.23285134 11.69824046 -23 9.19934537 -23 6 C-21.98679688 5.96261719 -20.97359375 5.92523438 -19.9296875 5.88671875 C-18.57809061 5.82101612 -17.22652971 5.75457029 -15.875 5.6875 C-15.20984375 5.66494141 -14.5446875 5.64238281 -13.859375 5.61914062 C-9.21510213 5.36871415 -6.04008372 4.23583268 -2 2 C-1.34 2 -0.68 2 0 2 C0 1.34 0 0.68 0 0 Z " transform="translate(56,54)" style="fill: #020202;"/><path d="M0 0 C0.98097656 0.48082031 1.96195313 0.96164063 2.97265625 1.45703125 C7.1259989 3.23703524 10.96153143 3.54417072 15.4375 3.6875 C16.16904297 3.72166016 16.90058594 3.75582031 17.65429688 3.79101562 C19.43569562 3.87251753 21.21781749 3.93795523 23 4 C22.42307409 10.3623003 20.9186415 15.97771164 18.89453125 22.0234375 C18.42123131 23.46581535 18.42123131 23.46581535 17.93836975 24.93733215 C16.90332151 28.0855455 15.85788694 31.23020625 14.8125 34.375 C14.08350813 36.58743604 13.35516376 38.80008552 12.62744141 41.01293945 C9.22608057 51.33962261 5.78786214 61.65371264 2.31640625 71.95703125 C-20.78105163 140.45689831 -20.78105163 140.45689831 -36.48095703 210.93505859 C-36.83125997 213.00359248 -37.1998824 215.06909578 -37.58544922 217.13134766 C-43.23501238 247.36227545 -43.12932417 279.69331381 -38 310 C-37.80664062 311.15806152 -37.61328125 312.31612305 -37.4140625 313.50927734 C-28.11085306 367.75646384 -10.21537151 419.88021165 7 472 C9.54770483 479.71321354 12.09163656 487.42762354 14.62460327 495.14569092 C15.60548303 498.12815664 16.59324864 501.10828246 17.58129883 504.08837891 C18.1717537 505.88562166 18.76186241 507.6829782 19.3515625 509.48046875 C19.62249222 510.2912941 19.89342194 511.10211945 20.17256165 511.93751526 C21.33114357 515.49217611 22 518.22450182 22 522 C21.13117188 522.06058594 20.26234375 522.12117187 19.3671875 522.18359375 C18.21476563 522.26738281 17.06234375 522.35117187 15.875 522.4375 C14.73804688 522.51871094 13.60109375 522.59992187 12.4296875 522.68359375 C9.2459522 522.97730965 6.14489093 523.43124313 3 524 C3 524.66 3 525.32 3 526 C1.68 526.33 0.36 526.66 -1 527 C-1.6171875 525.1484375 -2.234375 523.296875 -2.8515625 521.4453125 C-3.05767151 520.82725739 -3.26378052 520.20920227 -3.47613525 519.57241821 C-4.71647846 515.85257181 -5.95522154 512.1322011 -7.19189453 508.41113281 C-10.16223483 499.47978701 -13.14722591 490.55364556 -16.16257572 481.63738823 C-27.61678256 447.76678318 -38.72207151 413.88630334 -48.3213501 379.43127441 C-49.00562092 376.97986296 -49.69631505 374.53033158 -50.38818359 372.08105469 C-52.61410905 364.17698464 -54.78729008 356.28446407 -56.5 348.25 C-56.70157715 347.30648682 -56.9031543 346.36297363 -57.11083984 345.39086914 C-66.85919445 298.64324906 -70.26270717 253.13676279 -61.375 206.0625 C-61.24750366 205.38635651 -61.12000732 204.71021301 -60.98864746 204.01358032 C-50.26499824 147.5195953 -31.38506882 93.00188357 -13.25 38.5625 C-13.03200996 37.90787403 -12.81401993 37.25324806 -12.58942413 36.57878494 C-11.13053385 32.19858297 -9.66783579 27.81966615 -8.203125 23.44140625 C-7.8370816 22.34449463 -7.47103821 21.24758301 -7.09390259 20.11743164 C-4.8320312 13.37247257 -2.46495389 6.67342562 0 0 Z " transform="translate(589,56)" style="fill: #020202;"/><path d="M0 0 C1.1638623 0.20818359 2.32772461 0.41636719 3.52685547 0.63085938 C17.8330964 3.21262515 31.93100478 6.56632821 45.99755859 10.22070312 C49.09659289 11.02507111 52.19844164 11.81785916 55.30078125 12.609375 C57.34650764 13.13481952 59.39208583 13.66084142 61.4375 14.1875 C62.36643066 14.42525146 63.29536133 14.66300293 64.25244141 14.90795898 C65.13722168 15.13813721 66.02200195 15.36831543 66.93359375 15.60546875 C67.69728271 15.80293701 68.46097168 16.00040527 69.24780273 16.20385742 C72.33328704 17.0964117 75.36532814 18.11025652 78.40907288 19.13496399 C83.40360572 20.80249479 88.4231337 22.39332452 93.4375 24 C95.94163916 24.80406312 98.44572256 25.60829734 100.94970703 26.4128418 C101.60140429 26.62221972 102.25310154 26.83159765 102.9245472 27.04732037 C129.513374 35.59091439 156.04707849 44.28365661 182.5234375 53.16992188 C183.67423798 53.55573929 184.82503845 53.9415567 186.01071167 54.33906555 C188.15422803 55.05807418 190.29726547 55.77851279 192.43972778 56.50065613 C193.3827475 56.81714615 194.32576721 57.13363617 195.29736328 57.4597168 C196.11407501 57.73470505 196.93078674 58.0096933 197.77224731 58.29301453 C199.83491854 58.94761079 201.8947155 59.50180017 204 60 C203.71125 60.53625 203.4225 61.0725 203.125 61.625 C200.64639808 66.85760404 199.70177961 71.60189354 199.375 77.375 C199.30023437 78.62023437 199.22546875 79.86546875 199.1484375 81.1484375 C199.09945312 82.08945312 199.05046875 83.03046875 199 84 C192.8548516 82.74318621 186.93349457 81.13215583 180.98046875 79.1640625 C180.13711472 78.88891312 179.29376068 78.61376373 178.42485046 78.33027649 C175.67768442 77.43268044 172.93259038 76.52892198 170.1875 75.625 C168.25221025 74.99132958 166.31682477 74.35795143 164.38134766 73.72485352 C153.25266687 70.07966327 142.1413046 66.38409018 131.03814697 62.66201782 C77.64176386 44.77759679 24.06781366 27.94863847 -32 21 C-32.73033447 20.896875 -33.46066895 20.79375 -34.21313477 20.6875 C-41.74999844 19.6928862 -49.34815931 19.7561668 -56.9375 19.75 C-58.06239838 19.74898788 -58.06239838 19.74898788 -59.21002197 19.74795532 C-73.31308039 19.76795886 -87.0510924 20.85251096 -101 23 C-102.02996094 23.15033691 -103.05992187 23.30067383 -104.12109375 23.45556641 C-119.63601938 25.76410679 -134.84321029 29.2555201 -150.0625 33 C-150.8840155 33.19899902 -151.70553101 33.39799805 -152.55194092 33.60302734 C-188.49766687 42.36585774 -223.66597325 54.35772734 -258.69958496 66.16107178 C-266.39238034 68.75119495 -274.0893588 71.32887562 -281.78574944 73.90829086 C-284.42630817 74.79427606 -287.0659764 75.68286851 -289.70545959 76.572052 C-311.78160616 84 -311.78160616 84 -317 84 C-316.94779297 82.83984375 -316.94779297 82.83984375 -316.89453125 81.65625 C-316.71863176 74.88830777 -317.34474 70.19560666 -320 64 C-320 62.68 -320 61.36 -320 60 C-318.47677155 59.49225718 -316.95354283 58.98451514 -315.43031311 58.47677612 C-314.04248151 58.01416213 -312.65465411 57.55153551 -311.26683044 57.08889771 C-307.29102079 55.76356454 -303.31513132 54.43847157 -299.33911133 53.11376953 C-291.11903482 50.37479344 -282.89990513 47.63306416 -274.68359375 44.8828125 C-193.330546 17.66115584 -193.330546 17.66115584 -154 8 C-152.14839162 7.53533904 -150.29682743 7.07050195 -148.4453125 6.60546875 C-136.0510128 3.53053402 -123.60375647 1.04455187 -111 -1 C-109.92186035 -1.18481934 -108.8437207 -1.36963867 -107.73291016 -1.56005859 C-71.85822496 -7.58765899 -35.69255059 -6.60581295 0 0 Z " transform="translate(381,526)" style="fill: #020202;"/><path d="M0 0 C7.92 0 15.84 0 24 0 C24 6.93 24 13.86 24 21 C28.455 21.99 28.455 21.99 33 23 C35.6015625 24.0703125 35.6015625 24.0703125 37.625 25.125 C42.61249158 27.47051615 46.72243917 27.75918694 52 26 C53.08431094 24.25132517 53.08431094 24.25132517 54 22 C55 20 56 18 57 16 C62.09882455 17.5280389 66.65665659 19.71036856 71.375 22.125 C72.11105469 22.49753906 72.84710938 22.87007812 73.60546875 23.25390625 C75.40550358 24.1656122 77.20301402 25.08229932 79 26 C76.15314687 35.51662332 69.37023817 41.82522966 62.42236328 48.60107422 C58.84600674 52.09617558 55.58072706 55.72469346 52.5 59.671875 C51 61 51 61 47 61 C44.9140625 59.49609375 44.9140625 59.49609375 42.625 57.4375 C36.58994232 52.41718653 30.12559601 49.13559405 23 46 C22.19175781 45.63648438 21.38351562 45.27296875 20.55078125 44.8984375 C6.93706841 39.81408401 -9.01266517 42.45174431 -22 48 C-26.13993106 50.14118521 -30.06343945 52.51144182 -34 55 C-35.32 55.66 -36.64 56.32 -38 57 C-42.29 51.06 -46.58 45.12 -51 39 C-49 35 -49 35 -47 33 C-47.42152344 32.34773438 -47.84304687 31.69546875 -48.27734375 31.0234375 C-48.82519531 30.14945313 -49.37304688 29.27546875 -49.9375 28.375 C-50.48277344 27.51648438 -51.02804688 26.65796875 -51.58984375 25.7734375 C-53.09953248 22.8042436 -53.6186566 20.29210377 -54 17 C-50.92064034 15.8226504 -47.83592484 14.66002109 -44.75 13.5 C-43.44095703 12.99919922 -43.44095703 12.99919922 -42.10546875 12.48828125 C-41.26113281 12.17246094 -40.41679687 11.85664063 -39.546875 11.53125 C-38.77182617 11.23798828 -37.99677734 10.94472656 -37.19824219 10.64257812 C-35 10 -35 10 -31 10 C-30.32845067 11.28913487 -29.66291141 12.58140204 -29 13.875 C-28.62875 14.59429687 -28.2575 15.31359375 -27.875 16.0546875 C-27 18 -27 18 -27 20 C-21.62947639 20.19890828 -17.00373377 19.7264797 -11.78515625 18.4375 C-7.90168522 17.82747369 -3.93109137 18 0 18 C0 12.06 0 6.12 0 0 Z " transform="translate(238,196)" style="fill: #010101;"/><path d="M0 0 C7.92 0 15.84 0 24 0 C24 5.94 24 11.88 24 18 C26.97 18 29.94 18 33 18 C35.6015625 18.4375 35.6015625 18.4375 37.625 19 C41.53984475 19.93601 44.95535711 20.55514706 49 20 C52.09552568 17.07180003 53.62805022 14.00152021 55 10 C59.95021409 10.79647029 64.58170153 12.45320707 69.3125 14.0625 C70.14845703 14.34416016 70.98441406 14.62582031 71.84570312 14.91601562 C73.89805624 15.60795182 75.94915483 16.30360709 78 17 C77.55336433 18.43172804 77.09865395 19.86093852 76.640625 21.2890625 C76.38829102 22.08521973 76.13595703 22.88137695 75.87597656 23.70166016 C75.04543258 25.88079647 74.11405272 27.49839771 72.75 29.375 C72.1725 30.24125 71.595 31.1075 71 32 C71.9977758 34.99332739 72.7522025 35.94766315 75 38 C73.10141518 40.82510493 71.17824622 43.63257439 69.25 46.4375 C68.71117187 47.23994141 68.17234375 48.04238281 67.6171875 48.86914062 C67.08867187 49.63291016 66.56015625 50.39667969 66.015625 51.18359375 C65.53383789 51.89056396 65.05205078 52.59753418 64.55566406 53.32592773 C62.72808095 55.29261596 61.64915326 55.73249268 59 56 C56.84375 54.9609375 56.84375 54.9609375 54.5 53.375 C39.97370766 44.14855139 23.93420317 40.49370515 6.88769531 43.35449219 C-3.80526348 45.91524751 -14.01214961 52.67342763 -22.28125 59.78125 C-25 62 -25 62 -27 62 C-28.515625 60.49609375 -28.515625 60.49609375 -30.25 58.4375 C-30.87519531 57.7053125 -31.50039063 56.973125 -32.14453125 56.21875 C-33.2728519 54.86951604 -34.39653923 53.51636559 -35.51171875 52.15625 C-38.1276619 49.00278429 -40.74879281 46.33162639 -43.9375 43.75 C-49.41389688 39.11612571 -53.72771241 32.81686276 -56 26 C-53.46080994 24.70326398 -50.91885762 23.41252163 -48.375 22.125 C-47.66214844 21.76019531 -46.94929688 21.39539063 -46.21484375 21.01953125 C-42.21248163 18.99999073 -38.31082927 17.2918889 -34 16 C-33.60167969 16.62648437 -33.20335937 17.25296875 -32.79296875 17.8984375 C-32.26316406 18.71570313 -31.73335938 19.53296875 -31.1875 20.375 C-30.66542969 21.18710938 -30.14335937 21.99921875 -29.60546875 22.8359375 C-28.01562803 25.23350241 -28.01562803 25.23350241 -25 27 C-18.13446269 26.89102322 -12.84465356 24.93095714 -6.6015625 22.15625 C-4 21 -4 21 -1 20 C-0.67 13.4 -0.34 6.8 0 0 Z " transform="translate(384,196)" style="fill: #010101;"/><path d="M0 0 C0 0.66 0 1.32 0 2 C1.98 2.33 3.96 2.66 6 3 C6 3.99 6 4.98 6 6 C6.99 6.33 7.98 6.66 9 7 C10.0625 9.1875 10.0625 9.1875 11 12 C11.34675781 12.90621094 11.69351563 13.81242188 12.05078125 14.74609375 C13.08510485 18.29173803 13.20016665 21.19183421 13.125 24.875 C13.10695312 26.02742187 13.08890625 27.17984375 13.0703125 28.3671875 C13.04710937 29.23601563 13.02390625 30.10484375 13 31 C12.34 31 11.68 31 11 31 C10.81824219 31.88171875 10.81824219 31.88171875 10.6328125 32.78125 C9.20365946 37.79210759 5.97679125 41.70266755 1.5 44.3125 C-5.99881804 47.92800156 -12.50435511 49.76364535 -20.7265625 47.125 C-27.83172738 43.86220525 -32.68911024 39.42926309 -35.875 32.25 C-38.12909381 25.21614101 -38.00745495 18.4251899 -34.9375 11.6875 C-27.85610265 -0.87948685 -13.4510807 -5.97825809 0 0 Z " transform="translate(52,580)" style="fill: #0342A7;"/><path d="M0 0 C6.3718929 3.65130942 10.11777328 7.80731363 12.375 14.8125 C12.67664063 15.95332031 12.67664063 15.95332031 12.984375 17.1171875 C13.46104875 19.14520789 13.46104875 19.14520789 15.625 19.9375 C13.91756731 26.48265865 11.6545314 32.8784372 8.625 38.9375 C7.965 38.9375 7.305 38.9375 6.625 38.9375 C6.625 39.5975 6.625 40.2575 6.625 40.9375 C5.965 40.9375 5.305 40.9375 4.625 40.9375 C4.625 41.5975 4.625 42.2575 4.625 42.9375 C-2.86962621 48.04022423 -11.57983749 48.37574436 -20.375 46.9375 C-27.88646396 44.09939012 -32.32647591 38.22964571 -35.6875 31.1875 C-37.40198181 23.08267689 -37.0361814 16.45857545 -32.92578125 9.1640625 C-25.35679436 -1.70324866 -12.15859562 -5.55664325 0 0 Z " transform="translate(51.375,13.0625)" style="fill: #0442A8;"/><path d="M0 0 C5.46981824 6.73597987 5.91388576 13.52980322 5.0625 22 C3.30182512 29.22099571 -0.85948632 33.89233142 -6.9375 38 C-12.57192032 41.17926126 -18.5655164 42.00255113 -24.9375 41 C-32.27794033 38.62999236 -37.66545163 34.40807256 -41.9375 28 C-45.13478271 21.64820759 -44.95559452 13.59733306 -43.4375 6.7421875 C-41.77538637 2.53024047 -39.06219436 -0.79909358 -35.9375 -4 C-33.625 -4.875 -33.625 -4.875 -31.9375 -5 C-31.9375 -5.66 -31.9375 -6.32 -31.9375 -7 C-18.20174868 -11.94239927 -9.89531827 -10.54552399 0 0 Z " transform="translate(623.9375,587)" style="fill: #0342A7;"/><path d="M0 0 C5.51459954 3.31109148 10.95862756 8.11175397 13.1875 14.296875 C14.71750056 21.78294916 14.57639825 29.56729338 11.03125 36.4296875 C7.55495215 41.39306831 3.52115384 45.01429045 -2.375 46.4375 C-2.87 47.4275 -2.87 47.4275 -3.375 48.4375 C-21.76399449 48.39186974 -21.76399449 48.39186974 -29.375 41.4375 C-34.92836279 34.59265749 -35.99134297 28.01488245 -35.78125 19.31640625 C-35.09680335 12.78125699 -32.37988964 8.21834085 -27.59375 3.7890625 C-19.79046577 -2.13185053 -9.16178031 -4.17748495 0 0 Z " transform="translate(615.375,12.5625)" style="fill: #0442A7;"/><path d="M0 0 C-11.16660519 11.98856356 -29.40515635 14.49131491 -45.0866394 15.12466431 C-52.3211323 15.30620101 -59.55455661 15.32820489 -66.79101562 15.31567383 C-70.62398403 15.31250084 -74.45618823 15.3360925 -78.2890625 15.36132812 C-94.56405255 15.40582855 -108.36586087 14.59358982 -123.375 7.8125 C-124.21804688 7.44447266 -125.06109375 7.07644531 -125.9296875 6.69726562 C-127.95854342 5.80964116 -129.98148268 4.91082599 -132 4 C-132 3.67 -132 3.34 -132 3 C-113.68877179 2.20331132 -95.3885416 1.76025436 -77.0625 1.5 C-61.43066766 1.27768245 -45.81308049 0.99341659 -30.19252014 0.33569336 C-20.12612119 -0.07892627 -10.07302133 -0.09716741 0 0 Z " transform="translate(389,269)" style="fill: #030303;"/><path d="M0 0 C0.33 0.66 0.66 1.32 1 2 C1.66 2 2.32 2 3 2 C3 3.32 3 4.64 3 6 C2.34 6 1.68 6 1 6 C1 6.66 1 7.32 1 8 C0.34 8 -0.32 8 -1 8 C-0.95875 8.680625 -0.9175 9.36125 -0.875 10.0625 C-1.02549965 13.59924168 -1.94375853 16.63323033 -3 20 C-1.68 20 -0.36 20 1 20 C1 20.66 1 21.32 1 22 C5.29 22 9.58 22 14 22 C10.86369094 24.09087271 8.21492651 25.0159838 4.625 26.125 C3.50351563 26.47820313 2.38203125 26.83140625 1.2265625 27.1953125 C-1.68650019 27.92181482 -4.02106411 28.16735595 -7 28 C-6.46233663 21.25538735 -5.0789421 15.34195211 -2.9375 8.9375 C-2.51500977 7.6390918 -2.51500977 7.6390918 -2.08398438 6.31445312 C-1.39701565 4.20697281 -0.70229934 2.1024105 0 0 Z " transform="translate(65,558)" style="fill: #0DA685;"/><path d="M0 0 C1.69946788 2.54920182 2.56531331 4.32099564 3.5078125 7.16015625 C3.77207031 7.95357422 4.03632812 8.74699219 4.30859375 9.56445312 C4.57800781 10.38880859 4.84742188 11.21316406 5.125 12.0625 C5.40214844 12.89072266 5.67929687 13.71894531 5.96484375 14.57226562 C8 20.73287408 8 20.73287408 8 23 C7.34 23 6.68 23 6 23 C6 22.34 6 21.68 6 21 C5.071875 20.7834375 5.071875 20.7834375 4.125 20.5625 C2 20 2 20 0 19 C0 17.68 0 16.36 0 15 C-1.98 15 -3.96 15 -6 15 C-6 14.34 -6 13.68 -6 13 C-5.34 13 -4.68 13 -4 13 C-4 12.34 -4 11.68 -4 11 C-3.34 11 -2.68 11 -2 11 C-2.04125 9.741875 -2.0825 8.48375 -2.125 7.1875 C-2.2390374 3.70935927 -2.05925681 3.08888522 0 0 Z " transform="translate(570,529)" style="fill: #0AA785;"/><path d="M0 0 C6.6 0 13.2 0 20 0 C20 1.65 20 3.3 20 5 C22.97 5.495 22.97 5.495 26 6 C26 6.66 26 7.32 26 8 C27.32 8 28.64 8 30 8 C30 8.66 30 9.32 30 10 C23.11357167 8.60152532 16.58173303 6.64985223 9.9375 4.375 C8.97650391 4.05015625 8.01550781 3.7253125 7.02539062 3.390625 C4.68215356 2.59788808 2.34043824 1.80095424 0 1 C0 0.67 0 0.34 0 0 Z " transform="translate(524,566)" style="fill: #15A080;"/><path d="M0 0 C1.32 0 2.64 0 4 0 C4 1.32 4 2.64 4 4 C3.34 4 2.68 4 2 4 C2 4.66 2 5.32 2 6 C3.32 6 4.64 6 6 6 C6 6.66 6 7.32 6 8 C4.68 8 3.36 8 2 8 C2 8.66 2 9.32 2 10 C1.34 10 0.68 10 0 10 C0 10.66 0 11.32 0 12 C0.66 12 1.32 12 2 12 C2 13.32 2 14.64 2 16 C2.66 16 3.32 16 4 16 C4 17.98 4 19.96 4 22 C2.68 22 1.36 22 0 22 C0 20.02 0 18.04 0 16 C-0.66 16 -1.32 16 -2 16 C-2 12.7 -2 9.4 -2 6 C-1.34 6 -0.68 6 0 6 C0 4.02 0 2.04 0 0 Z " transform="translate(120,394)" style="fill: #11A685;"/><path d="M0 0 C0.33 0 0.66 0 1 0 C1 17.82 1 35.64 1 54 C0.34 54 -0.32 54 -1 54 C-1 56.64 -1 59.28 -1 62 C-1.66 62 -2.32 62 -3 62 C-2.94465088 61.4009082 -2.88930176 60.80181641 -2.83227539 60.18457031 C-1.027478 40.13460469 -0.4177592 20.11697331 0 0 Z " transform="translate(123,304)" style="fill: #2B9279;"/><path d="M0 0 C2.64 0 5.28 0 8 0 C8 0.66 8 1.32 8 2 C10.64 2 13.28 2 16 2 C12.72828292 3.75439901 9.39577958 4.95717385 5.875 6.125 C4.82054687 6.47820313 3.76609375 6.83140625 2.6796875 7.1953125 C0 8 0 8 -2 8 C-1.47731534 5.23723823 -0.89130413 2.6739124 0 0 Z " transform="translate(148,550)" style="fill: #11A584;"/><path d="M0 0 C2.20838055 3.31257082 3.38286788 6.63416025 4.625 10.375 C4.85445312 11.035 5.08390625 11.695 5.3203125 12.375 C6.54156384 16.02421532 7.28256724 19.14816234 7 23 C6.67 22.34 6.34 21.68 6 21 C5.34 21 4.68 21 4 21 C4 19.02 4 17.04 4 15 C3.34 15 2.68 15 2 15 C1.896875 14.360625 1.79375 13.72125 1.6875 13.0625 C1.460625 12.381875 1.23375 11.70125 1 11 C0.01 10.67 -0.98 10.34 -2 10 C-2 7.69 -2 5.38 -2 3 C-1.34 3 -0.68 3 0 3 C0 2.01 0 1.02 0 0 Z " transform="translate(554,481)" style="fill: #11A282;"/><path d="M0 0 C0.66 0.33 1.32 0.66 2 1 C1.01 1.33 0.02 1.66 -1 2 C-1 3.98 -1 5.96 -1 8 C-1.66 8 -2.32 8 -3 8 C-3.66 9.32 -4.32 10.64 -5 12 C-5.99 11.67 -6.98 11.34 -8 11 C-8.99 12.65 -9.98 14.3 -11 16 C-11.66015625 14.25 -11.66015625 14.25 -12 12 C-9.30210447 6.62520423 -5.14017188 2.93724107 0 0 Z " transform="translate(29,580)" style="fill: #0D43A6;"/><path d="M0 0 C0.33 0.66 0.66 1.32 1 2 C1.66 2 2.32 2 3 2 C3 3.32 3 4.64 3 6 C2.34 6 1.68 6 1 6 C1 6.66 1 7.32 1 8 C0.34 8 -0.32 8 -1 8 C-0.95875 8.680625 -0.9175 9.36125 -0.875 10.0625 C-1.02549965 13.59924168 -1.94375853 16.63323033 -3 20 C-1.68 20 -0.36 20 1 20 C1 20.66 1 21.32 1 22 C-0.98 22 -2.96 22 -5 22 C-5 23.32 -5 24.64 -5 26 C-5.66 26 -6.32 26 -7 26 C-6.36519395 20.077822 -4.78907028 14.71172256 -2.9375 9.0625 C-2.65583984 8.18787109 -2.37417969 7.31324219 -2.08398438 6.41210938 C-1.39434445 4.27305673 -0.69959171 2.13581421 0 0 Z " transform="translate(65,558)" style="fill: #25977B;"/><path d="M0 0 C0.33 0 0.66 0 1 0 C1.33970765 2.49927769 1.67188032 4.99919595 2 7.5 C2.09539063 8.19609375 2.19078125 8.8921875 2.2890625 9.609375 C2.9161622 14.44700129 3.08789528 19.12181196 3 24 C2.67 24 2.34 24 2 24 C2 22.02 2 20.04 2 18 C1.34 18 0.68 18 0 18 C0 18.66 0 19.32 0 20 C-0.66 20 -1.32 20 -2 20 C-2 17.36 -2 14.72 -2 12 C-1.34 12 -0.68 12 0 12 C0 11.34 0 10.68 0 10 C-0.99 10.33 -1.98 10.66 -3 11 C-2.53199289 6.94393835 -2.12046792 3.53411321 0 0 Z " transform="translate(524,354)" style="fill: #199578;"/><path d="M0 0 C2.11434065 3.17151097 3.01955937 5.86432861 4.125 9.5 C4.47820313 10.6446875 4.83140625 11.789375 5.1953125 12.96875 C6 16 6 16 6 19 C4.02 19 2.04 19 0 19 C-0.17835515 14.45194365 0.00214565 11.1205746 2 7 C1.34 7 0.68 7 0 7 C0 5.68 0 4.36 0 3 C-0.66 3 -1.32 3 -2 3 C-2 2.34 -2 1.68 -2 1 C-1.34 0.67 -0.68 0.34 0 0 Z " transform="translate(580,559)" style="fill: #17997B;"/><path d="M0 0 C1.98 0 3.96 0 6 0 C6 0.66 6 1.32 6 2 C17.88 2 29.76 2 42 2 C42 2.33 42 2.66 42 3 C26.16 3 10.32 3 -6 3 C-6 2.67 -6 2.34 -6 2 C-4.02 2 -2.04 2 0 2 C0 1.34 0 0.68 0 0 Z " transform="translate(304,518)" style="fill: #458271;"/><path d="M0 0 C1.85276347 3.39673303 2.99049196 6.86904604 4.125 10.5625 C4.47820313 11.69816406 4.83140625 12.83382813 5.1953125 14.00390625 C6 17 6 17 6 20 C5.34 20 4.68 20 4 20 C4 20.66 4 21.32 4 22 C3.34 22 2.68 22 2 22 C2 18.04 2 14.08 2 10 C1.34 10 0.68 10 0 10 C0 9.34 0 8.68 0 8 C-0.66 8 -1.32 8 -2 8 C-1.33333333 5.33333333 -0.66666667 2.66666667 0 0 Z " transform="translate(546,454)" style="fill: #1D9F80;"/><path d="M0 0 C1.98 0 3.96 0 6 0 C6 0.66 6 1.32 6 2 C7.32 2 8.64 2 10 2 C10 1.34 10 0.68 10 0 C13.96 0 17.92 0 22 0 C22 0.66 22 1.32 22 2 C18.7 2 15.4 2 12 2 C12 2.66 12 3.32 12 4 C10.02 4 8.04 4 6 4 C6 4.66 6 5.32 6 6 C5.01 5.67 4.02 5.34 3 5 C3.33 4.01 3.66 3.02 4 2 C2.68 2 1.36 2 0 2 C0 1.34 0 0.68 0 0 Z " transform="translate(256,518)" style="fill: #12A685;"/><path d="M0 0 C1.32 0 2.64 0 4 0 C4 1.98 4 3.96 4 6 C5.98 6 7.96 6 10 6 C10 7.32 10 8.64 10 10 C7.03 9.67 4.06 9.34 1 9 C1.33 7.35 1.66 5.7 2 4 C0.02 4 -1.96 4 -4 4 C-4 3.34 -4 2.68 -4 2 C-2.68 2 -1.36 2 0 2 C0 1.34 0 0.68 0 0 Z " transform="translate(380,518)" style="fill: #0FA785;"/><path d="M0 0 C0.66 0 1.32 0 2 0 C2 7.26 2 14.52 2 22 C1.34 22 0.68 22 0 22 C-0.19617816 19.45873828 -0.38217248 16.91739541 -0.5625 14.375 C-0.61857422 13.66214844 -0.67464844 12.94929688 -0.73242188 12.21484375 C-1.02495798 7.96331896 -0.89547939 4.20543653 0 0 Z " transform="translate(124,336)" style="fill: #14A685;"/><path d="M0 0 C0.33 0 0.66 0 1 0 C1.02689449 2.95839355 1.04678741 5.91654427 1.0625 8.875 C1.07087891 9.71675781 1.07925781 10.55851562 1.08789062 11.42578125 C1.09111328 12.23144531 1.09433594 13.03710938 1.09765625 13.8671875 C1.10289307 14.61081543 1.10812988 15.35444336 1.11352539 16.12060547 C1 18 1 18 0 20 C-0.66 20 -1.32 20 -2 20 C-2 14.72 -2 9.44 -2 4 C-1.34 4 -0.68 4 0 4 C0 2.68 0 1.36 0 0 Z " transform="translate(522,332)" style="fill: #249C80;"/><path d="M0 0 C1.98 0 3.96 0 6 0 C6 0.66 6 1.32 6 2 C7.98 2 9.96 2 12 2 C12 3.32 12 4.64 12 6 C10.68 6 9.36 6 8 6 C8 5.34 8 4.68 8 4 C5.36 4 2.72 4 0 4 C0 2.68 0 1.36 0 0 Z " transform="translate(548,568)" style="fill: #14A685;"/><path d="M0 0 C3.96 0 7.92 0 12 0 C12 0.66 12 1.32 12 2 C13.98 2 15.96 2 18 2 C18 2.66 18 3.32 18 4 C14.7 4 11.4 4 8 4 C8 3.34 8 2.68 8 2 C5.36 2 2.72 2 0 2 C0 1.34 0 0.68 0 0 Z " transform="translate(360,514)" style="fill: #16A685;"/><path d="M0 0 C3.3 0 6.6 0 10 0 C10.33 2.31 10.66 4.62 11 7 C8.69 6.67 6.38 6.34 4 6 C4 4.35 4 2.7 4 1 C2.68 0.67 1.36 0.34 0 0 Z " transform="translate(514,282)" style="fill: #109F7F;"/><path d="M0 0 C1.32 0 2.64 0 4 0 C4 0.66 4 1.32 4 2 C5.32 2 6.64 2 8 2 C8 6 8 6 6 8 C3.27130593 7.96712417 0.7033382 7.43602229 -2 7 C-2 6.67 -2 6.34 -2 6 C-0.02 6 1.96 6 4 6 C4 5.34 4 4.68 4 4 C2.68 4 1.36 4 0 4 C0 2.68 0 1.36 0 0 Z " transform="translate(456,538)" style="fill: #169E7F;"/><path d="M0 0 C2.45823172 3.68734758 3.01242616 6.69699971 4 11 C2.02 11 0.04 11 -2 11 C-2.25 3.375 -2.25 3.375 0 0 Z " transform="translate(570,529)" style="fill: #18997B;"/><path d="M0 0 C2 3 2 3 1.6875 5.125 C1 7 1 7 0 8 C-2.69082872 7.82364548 -5.32851446 7.38164079 -8 7 C-7.34 6.67 -6.68 6.34 -6 6 C-6 5.34 -6 4.68 -6 4 C-4.68 4 -3.36 4 -2 4 C-1.34 2.68 -0.68 1.36 0 0 Z " transform="translate(586,578)" style="fill: #179C7F;"/><path d="M0 0 C2 0 2 0 3 1 C3.99 0.67 4.98 0.34 6 0 C6.12375 0.78375 6.2475 1.5675 6.375 2.375 C6.79117993 5.14057822 6.79117993 5.14057822 9 7 C8.67 7.66 8.34 8.32 8 9 C4.20620942 7.50958227 2.31656242 5.30937488 0 2 C0 1.34 0 0.68 0 0 Z " transform="translate(18,614)" style="fill: #154AA6;"/><path d="M0 0 C-0.33 1.98 -0.66 3.96 -1 6 C-3.31 6.66 -5.62 7.32 -8 8 C-8 7.34 -8 6.68 -8 6 C-7.34 6 -6.68 6 -6 6 C-6 4.35 -6 2.7 -6 1 C-4 0 -4 0 0 0 Z " transform="translate(588,56)" style="fill: #6D6D6B;"/><path d="M0 0 C3.32710168 4.99065252 5.58827908 10.92111612 5 17 C4.67 16.34 4.34 15.68 4 15 C3.34 15 2.68 15 2 15 C2 13.02 2 11.04 2 9 C1.34 9 0.68 9 0 9 C0 6.03 0 3.06 0 0 Z " transform="translate(556,487)" style="fill: #229579;"/><path d="M0 0 C1.32 0 2.64 0 4 0 C4 0.66 4 1.32 4 2 C5.32 2 6.64 2 8 2 C8 2.66 8 3.32 8 4 C8.66 4 9.32 4 10 4 C9.67 4.66 9.34 5.32 9 6 C3.06 4.515 3.06 4.515 -3 3 C-2.01 2.67 -1.02 2.34 0 2 C0 1.34 0 0.68 0 0 Z " transform="translate(444,538)" style="fill: #219C7F;"/><path d="M0 0 C-2.60542016 1.73694677 -4.58342775 2.69100448 -7.5 3.6875 C-8.2734375 3.95949219 -9.046875 4.23148438 -9.84375 4.51171875 C-12 5 -12 5 -15 4 C-11.3460697 -1.5678938 -5.94143168 -0.36877852 0 0 Z " transform="translate(79,580)" style="fill: #239A7D;"/><path d="M0 0 C1.32 0 2.64 0 4 0 C4 0.66 4 1.32 4 2 C6.64 2 9.28 2 12 2 C12 2.66 12 3.32 12 4 C8.04 4 4.08 4 0 4 C0 2.68 0 1.36 0 0 Z " transform="translate(488,546)" style="fill: #17A685;"/><path d="M0 0 C2.31 0.33 4.62 0.66 7 1 C6.525625 1.78375 6.05125 2.5675 5.5625 3.375 C4.66101977 4.88948678 3.78820515 6.4235897 3 8 C2.34 8 1.68 8 1 8 C-0.35439668 5.29120665 -0.06501451 2.99066732 0 0 Z " transform="translate(58,56)" style="fill: #454445;"/><path d="M0 0 C2 2 2 2 2.5 4.5625 C2.665 5.366875 2.83 6.17125 3 7 C3.66 7.33 4.32 7.66 5 8 C4.34 10.31 3.68 12.62 3 15 C2.67 15 2.34 15 2 15 C2 12.36 2 9.72 2 7 C1.34 7 0.68 7 0 7 C0 6.34 0 5.68 0 5 C-0.66 5 -1.32 5 -2 5 C-1.125 1.125 -1.125 1.125 0 0 Z " transform="translate(62,25)" style="fill: #23478C;"/><path d="M0 0 C0.66 0.33 1.32 0.66 2 1 C1.01 1.33 0.02 1.66 -1 2 C-1 3.32 -1 4.64 -1 6 C-1.66 6 -2.32 6 -3 6 C-3 5.34 -3 4.68 -3 4 C-4.14926266 4.95421808 -5.29430541 5.91352045 -6.4375 6.875 C-7.07558594 7.40867187 -7.71367187 7.94234375 -8.37109375 8.4921875 C-10.10805004 9.9222757 -10.10805004 9.9222757 -11 12 C-11.66 11.67 -12.32 11.34 -13 11 C-5.79030154 2.01987263 -5.79030154 2.01987263 0 0 Z " transform="translate(31,12)" style="fill: #284FA6;"/><path d="M0 0 C0.99 0.33 1.98 0.66 3 1 C3 3.64 3 6.28 3 9 C2.67 8.34 2.34 7.68 2 7 C1.01 7 0.02 7 -1 7 C-1.33 8.32 -1.66 9.64 -2 11 C-3 9 -3 9 -2.44140625 6.8359375 C-2.15136719 6.02382813 -1.86132812 5.21171875 -1.5625 4.375 C-1.27503906 3.55773437 -0.98757812 2.74046875 -0.69140625 1.8984375 C-0.46324219 1.27195312 -0.23507813 0.64546875 0 0 Z " transform="translate(69,546)" style="fill: #1B9679;"/><path d="M0 0 C0.66 0 1.32 0 2 0 C2 0.66 2 1.32 2 2 C2.66 2 3.32 2 4 2 C5.60725635 5.21451269 5.05748185 8.43612536 5 12 C4.67 12 4.34 12 4 12 C4 10.02 4 8.04 4 6 C3.34 6 2.68 6 2 6 C2 6.66 2 7.32 2 8 C1.34 8 0.68 8 0 8 C0 5.36 0 2.72 0 0 Z " transform="translate(522,366)" style="fill: #1EA082;"/><path d="M0 0 C0.66 1.32 1.32 2.64 2 4 C3.32 4 4.64 4 6 4 C6 4.66 6 5.32 6 6 C4.02 6 2.04 6 0 6 C0 7.32 0 8.64 0 10 C-0.66 10 -1.32 10 -2 10 C-1.54177532 6.53058454 -1.10868317 3.32604951 0 0 Z " transform="translate(60,574)" style="fill: #179E7E;"/><path d="M0 0 C2.45823172 3.68734758 3.01242616 6.69699971 4 11 C2.68 11 1.36 11 0 11 C-1.05404945 7.01803543 -0.84098656 4.01804691 0 0 Z " transform="translate(566,517)" style="fill: #1B9175;"/><path d="M0 0 C1.98 0 3.96 0 6 0 C6 0.66 6 1.32 6 2 C7.65 2 9.3 2 11 2 C11 2.33 11 2.66 11 3 C5.39 3 -0.22 3 -6 3 C-6 2.67 -6 2.34 -6 2 C-4.02 2 -2.04 2 0 2 C0 1.34 0 0.68 0 0 Z " transform="translate(304,518)" style="fill: #379D83;"/><path d="M0 0 C2.21399303 3.79541663 3.00980198 7.75629421 4 12 C2.68 11.34 1.36 10.68 0 10 C0 9.34 0 8.68 0 8 C-0.66 8 -1.32 8 -2 8 C-1.33333333 5.33333333 -0.66666667 2.66666667 0 0 Z " transform="translate(546,454)" style="fill: #1C9477;"/><path d="M0 0 C0.33 0.66 0.66 1.32 1 2 C1.66 2 2.32 2 3 2 C3 3.32 3 4.64 3 6 C2.34 6 1.68 6 1 6 C1 6.66 1 7.32 1 8 C0.34 8 -0.32 8 -1 8 C-1 9.32 -1 10.64 -1 12 C-1.66 12 -2.32 12 -3 12 C-2.01 8.04 -1.02 4.08 0 0 Z " transform="translate(81,510)" style="fill: #25987C;"/><path d="M0 0 C-1.32 0.33 -2.64 0.66 -4 1 C-4 1.66 -4 2.32 -4 3 C-3.34 3 -2.68 3 -2 3 C-2 3.66 -2 4.32 -2 5 C-4.66666667 4.33333333 -7.33333333 3.66666667 -10 3 C-10 2.34 -10 1.68 -10 1 C-3.71428571 -1.42857143 -3.71428571 -1.42857143 0 0 Z " transform="translate(602,579)" style="fill: #0A3A94;"/><path d="M0 0 C1.32 0 2.64 0 4 0 C4 0.66 4 1.32 4 2 C5.32 2.33 6.64 2.66 8 3 C4.04 3.99 0.08 4.98 -4 6 C-4 5.34 -4 4.68 -4 4 C-3.01 3.34 -2.02 2.68 -1 2 C-0.67 1.34 -0.34 0.68 0 0 Z " transform="translate(196,538)" style="fill: #259E81;"/><path d="M0 0 C0.99 0.495 0.99 0.495 2 1 C2 2.65 2 4.3 2 6 C2.66 6 3.32 6 4 6 C4 7.32 4 8.64 4 10 C2.68 10 1.36 10 0 10 C0 6.7 0 3.4 0 0 Z " transform="translate(108,436)" style="fill: #12A685;"/><path d="M0 0 C3.63 0 7.26 0 11 0 C7.31265242 2.45823172 4.30300029 3.01242616 0 4 C0 2.68 0 1.36 0 0 Z " transform="translate(116,564)" style="fill: #229C7F;"/><path d="M0 0 C0.99 0 1.98 0 3 0 C1.61198929 3.35435922 0.11371 5.11290303 -3 7 C-3.99 7 -4.98 7 -6 7 C-5.67 6.01 -5.34 5.02 -5 4 C-4.01 4 -3.02 4 -2 4 C-2 3.34 -2 2.68 -2 2 C-1.34 2 -0.68 2 0 2 C0 1.34 0 0.68 0 0 Z " transform="translate(56,618)" style="fill: #1C4DA4;"/><path d="M0 0 C0.33 0.66 0.66 1.32 1 2 C2.32 2 3.64 2 5 2 C5 4.31 5 6.62 5 9 C1.7457985 6.16569547 0.4793247 4.31392226 0 0 Z " transform="translate(581,610)" style="fill: #164BA1;"/><path d="M0 0 C1.98 0 3.96 0 6 0 C6 0.66 6 1.32 6 2 C5.34 2 4.68 2 4 2 C4 2.66 4 3.32 4 4 C2.02 4 0.04 4 -2 4 C-2 3.34 -2 2.68 -2 2 C-1.34 2 -0.68 2 0 2 C0 1.34 0 0.68 0 0 Z " transform="translate(536,562)" style="fill: #11A685;"/><path d="M0 0 C0.66 0 1.32 0 2 0 C2 0.66 2 1.32 2 2 C3.65 2 5.3 2 7 2 C7.33 2.99 7.66 3.98 8 5 C3.71 4.34 -0.58 3.68 -5 3 C-5 2.67 -5 2.34 -5 2 C-3.35 2 -1.7 2 0 2 C0 1.34 0 0.68 0 0 Z " transform="translate(414,530)" style="fill: #24987D;"/><path d="M0 0 C1.98 0 3.96 0 6 0 C6 1.32 6 2.64 6 4 C3.03 3.67 0.06 3.34 -3 3 C-2.01 2.67 -1.02 2.34 0 2 C0 1.34 0 0.68 0 0 Z " transform="translate(384,524)" style="fill: #269B7E;"/><path d="M0 0 C0.66 0 1.32 0 2 0 C2 2.64 2 5.28 2 8 C0.68 8 -0.64 8 -2 8 C-2 6.68 -2 5.36 -2 4 C-1.34 4 -0.68 4 0 4 C0 2.68 0 1.36 0 0 Z " transform="translate(110,450)" style="fill: #10A685;"/><path d="M0 0 C0.66 0.33 1.32 0.66 2 1 C1.01 1.33 0.02 1.66 -1 2 C-1 3.32 -1 4.64 -1 6 C-2.98 6 -4.96 6 -7 6 C-2.25 1.125 -2.25 1.125 0 0 Z " transform="translate(29,580)" style="fill: #1A4BA2;"/><path d="M0 0 C-3.68734758 2.45823172 -6.69699971 3.01242616 -11 4 C-11 3.34 -11 2.68 -11 2 C-10.34 2 -9.68 2 -9 2 C-9 1.34 -9 0.68 -9 0 C-5.67465243 -1.10844919 -3.37817425 -0.84454356 0 0 Z " transform="translate(109,570)" style="fill: #249D7F;"/><path d="M0 0 C3.3 0 6.6 0 10 0 C6.99895182 1.50052409 4.90648893 2.38848592 1.75 3.125 C0.5125 3.41375 -0.725 3.7025 -2 4 C-2 3.34 -2 2.68 -2 2 C-1.34 2 -0.68 2 0 2 C0 1.34 0 0.68 0 0 Z " transform="translate(180,544)" style="fill: #249C7F;"/><path d="M0 0 C1.98 0 3.96 0 6 0 C6 1.32 6 2.64 6 4 C3.03 3.505 3.03 3.505 0 3 C0 2.01 0 1.02 0 0 Z " transform="translate(560,576)" style="fill: #179E7F;"/><path d="M0 0 C2.45823172 3.68734758 3.01242616 6.69699971 4 11 C3.34 11 2.68 11 2 11 C2 10.34 2 9.68 2 9 C1.34 9 0.68 9 0 9 C0 6.03 0 3.06 0 0 Z " transform="translate(574,541)" style="fill: #228D72;"/><path d="M0 0 C-0.33 2.97 -0.66 5.94 -1 9 C-1.66 9 -2.32 9 -3 9 C-3 6.36 -3 3.72 -3 1 C-1 0 -1 0 0 0 Z " transform="translate(537,419)" style="fill: #25A284;"/><path d="M0 0 C0.33 0 0.66 0 1 0 C1.21278058 4.46839215 0.59138085 7.82262526 -1 12 C-1.33 12 -1.66 12 -2 12 C-2.28571429 3.42857143 -2.28571429 3.42857143 0 0 Z " transform="translate(125,292)" style="fill: #1EA585;"/><path d="M0 0 C1.32 0 2.64 0 4 0 C4 1.32 4 2.64 4 4 C2.02 4 0.04 4 -2 4 C-2 3.34 -2 2.68 -2 2 C-1.34 2 -0.68 2 0 2 C0 1.34 0 0.68 0 0 Z " transform="translate(556,562)" style="fill: #11A685;"/><path d="M0 0 C0.66 0 1.32 0 2 0 C2 0.66 2 1.32 2 2 C2.66 2 3.32 2 4 2 C4 2.66 4 3.32 4 4 C5.32 4.33 6.64 4.66 8 5 C6.741875 4.87625 5.48375 4.7525 4.1875 4.625 C3.12595703 4.52058594 3.12595703 4.52058594 2.04296875 4.4140625 C0 4 0 4 -3 2 C-2.01 2 -1.02 2 0 2 C0 1.34 0 0.68 0 0 Z " transform="translate(478,548)" style="fill: #29967B;"/><path d="M0 0 C0.33 0.66 0.66 1.32 1 2 C1.66 2 2.32 2 3 2 C3 3.65 3 5.3 3 7 C2.01 7.495 2.01 7.495 1 8 C1 7.34 1 6.68 1 6 C0.34 6 -0.32 6 -1 6 C-0.67 4.02 -0.34 2.04 0 0 Z " transform="translate(73,534)" style="fill: #1B997B;"/><path d="M0 0 C1.98 0 3.96 0 6 0 C6 0.66 6 1.32 6 2 C4.68 2 3.36 2 2 2 C2 2.66 2 3.32 2 4 C0.68 4 -0.64 4 -2 4 C-2 3.34 -2 2.68 -2 2 C-1.34 2 -0.68 2 0 2 C0 1.34 0 0.68 0 0 Z " transform="translate(442,532)" style="fill: #11A685;"/><path d="M0 0 C1.65 0 3.3 0 5 0 C5 0.66 5 1.32 5 2 C5.99 2.33 6.98 2.66 8 3 C5.69 3.33 3.38 3.66 1 4 C0.67 2.68 0.34 1.36 0 0 Z " transform="translate(227,530)" style="fill: #1D9C7E;"/><path d="M0 0 C1.32 0 2.64 0 4 0 C4 1.98 4 3.96 4 6 C3.34 6 2.68 6 2 6 C2 5.34 2 4.68 2 4 C1.34 4 0.68 4 0 4 C0 2.68 0 1.36 0 0 Z " transform="translate(554,496)" style="fill: #11A685;"/><path d="M0 0 C2.64 0 5.28 0 8 0 C8 0.66 8 1.32 8 2 C8.99 2.33 9.98 2.66 11 3 C9 4 9 4 6.8359375 3.44140625 C6.02382813 3.15136719 5.21171875 2.86132812 4.375 2.5625 C3.55773437 2.27503906 2.74046875 1.98757813 1.8984375 1.69140625 C1.27195312 1.46324219 0.64546875 1.23507812 0 1 C0 0.67 0 0.34 0 0 Z " transform="translate(524,566)" style="fill: #269076;"/><path d="M0 0 C1.22589844 0.01353516 1.22589844 0.01353516 2.4765625 0.02734375 C3.41628906 0.04474609 3.41628906 0.04474609 4.375 0.0625 C1.04188525 1.8449918 -1.86980943 2.55042856 -5.625 3.0625 C-5.955 2.4025 -6.285 1.7425 -6.625 1.0625 C-4.21954362 -0.14022819 -2.67503047 -0.03821472 0 0 Z " transform="translate(159.625,551.9375)" style="fill: #259E81;"/><path d="M0 0 C0.66 0 1.32 0 2 0 C2 1.98 2 3.96 2 6 C-1.875 4.25 -1.875 4.25 -3 2 C-2.01 2 -1.02 2 0 2 C0 1.34 0 0.68 0 0 Z " transform="translate(590,618)" style="fill: #1445A4;"/><path d="M0 0 C1.65 0 3.3 0 5 0 C4.01 0.495 4.01 0.495 3 1 C2.65657551 2.33076989 2.32380126 3.66431979 2 5 C1.34 5.66 0.68 6.32 0 7 C0 4.69 0 2.38 0 0 Z " transform="translate(60,610)" style="fill: #214AA0;"/><path d="M0 0 C0.66 0 1.32 0 2 0 C2 0.66 2 1.32 2 2 C2.66 2 3.32 2 4 2 C4 2.66 4 3.32 4 4 C1.29120665 5.35439668 -1.00933268 5.06501451 -4 5 C-2.68 4.67 -1.36 4.34 0 4 C0 2.68 0 1.36 0 0 Z " transform="translate(472,544)" style="fill: #1B9E7F;"/><path d="M0 0 C1.32 0 2.64 0 4 0 C4 0.66 4 1.32 4 2 C4.99 2.33 5.98 2.66 7 3 C4.69 3.33 2.38 3.66 0 4 C0 2.68 0 1.36 0 0 Z " transform="translate(204,536)" style="fill: #23A283;"/><path d="M0 0 C1.95216435 3.90432869 2.50639991 6.72213252 3 11 C2.67 10.34 2.34 9.68 2 9 C1.34 9 0.68 9 0 9 C0 6.03 0 3.06 0 0 Z " transform="translate(540,433)" style="fill: #2D8D75;"/><path d="M0 0 C1.32 0.33 2.64 0.66 4 1 C1.03 3.475 1.03 3.475 -2 6 C-2 4.68 -2 3.36 -2 2 C-1.34 2 -0.68 2 0 2 C0 1.34 0 0.68 0 0 Z " transform="translate(620,618)" style="fill: #2147A2;"/><path d="M0 0 C1.98 1.65 3.96 3.3 6 5 C4.68 5.33 3.36 5.66 2 6 C2 5.34 2 4.68 2 4 C1.34 4 0.68 4 0 4 C0 2.68 0 1.36 0 0 Z " transform="translate(620,584)" style="fill: #1A489F;"/><path d="M0 0 C1.32 0 2.64 0 4 0 C4 1.32 4 2.64 4 4 C1.03 3.505 1.03 3.505 -2 3 C-1.34 2.67 -0.68 2.34 0 2 C0 1.34 0 0.68 0 0 Z " transform="translate(580,582)" style="fill: #1D9277;"/><path d="M0 0 C1.32 0 2.64 0 4 0 C4 1.32 4 2.64 4 4 C1.03 3.505 1.03 3.505 -2 3 C-1.34 2.67 -0.68 2.34 0 2 C0 1.34 0 0.68 0 0 Z " transform="translate(568,578)" style="fill: #1F997B;"/><path d="M0 0 C1.32 0 2.64 0 4 0 C4 0.66 4 1.32 4 2 C3.34 2 2.68 2 2 2 C2 2.66 2 3.32 2 4 C-0.97 3.505 -0.97 3.505 -4 3 C-2.68 2.67 -1.36 2.34 0 2 C0 1.34 0 0.68 0 0 Z " transform="translate(516,560)" style="fill: #1B9B7D;"/><path d="M0 0 C4.455 0.99 4.455 0.99 9 2 C9 2.33 9 2.66 9 3 C6.69 3.33 4.38 3.66 2 4 C2 3.34 2 2.68 2 2 C1.34 2 0.68 2 0 2 C0 1.34 0 0.68 0 0 Z " transform="translate(218,532)" style="fill: #21A082;"/><path d="M0 0 C2 3 2 3 2 6 C1.34 6 0.68 6 0 6 C0 6.66 0 7.32 0 8 C-0.66 8 -1.32 8 -2 8 C-2 6.68 -2 5.36 -2 4 C-1.34 4 -0.68 4 0 4 C0 2.68 0 1.36 0 0 Z " transform="translate(552,474)" style="fill: #209578;"/><path d="M0 0 C0.33 0 0.66 0 1 0 C1 2.97 1 5.94 1 9 C0.34 9 -0.32 9 -1 9 C-1.33 9.66 -1.66 10.32 -2 11 C-1.40049704 7.31733897 -0.75241109 3.65456815 0 0 Z " transform="translate(103,439)" style="fill: #2F9279;"/><path d="M0 0 C0.66 0 1.32 0 2 0 C2 1.32 2 2.64 2 4 C1.34 4 0.68 4 0 4 C-0.33 5.32 -0.66 6.64 -1 8 C-1.93065133 5.39417629 -2.14917407 4.35801776 -1.0625 1.75 C-0.711875 1.1725 -0.36125 0.595 0 0 Z " transform="translate(582,24)" style="fill: #1351A7;"/></svg>
